<svg width="285" height="455" viewBox="0 0 285 455" fill="none" xmlns="http://www.w3.org/2000/svg">
    <g clip-path="url(#clip0_1_151)">
        <path d="M49.6261 188.83C67.3821 188.83 81.7762 175.27 81.7762 158.543C81.7762 141.817 67.3821 128.257 49.6261 128.257C31.87 128.257 17.4759 141.817 17.4759 158.543C17.4759 175.27 31.87 188.83 49.6261 188.83Z" fill="#FFD3AE"/>
        <path d="M235.373 188.83C253.129 188.83 267.523 175.27 267.523 158.543C267.523 141.817 253.129 128.257 235.373 128.257C217.617 128.257 203.223 141.817 203.223 158.543C203.223 175.27 217.617 188.83 235.373 188.83Z" fill="#FFD3AE"/>
        <path d="M49.6261 195.345C28.0847 195.345 10.5594 178.836 10.5594 158.543C10.5594 138.251 28.0847 121.742 49.6261 121.742C71.1675 121.742 88.6927 138.251 88.6927 158.543C88.6927 178.836 71.1651 195.345 49.6261 195.345ZM49.6261 134.773C35.7124 134.773 24.3924 145.436 24.3924 158.543C24.3924 171.651 35.7113 182.314 49.6261 182.314C63.5409 182.314 74.8597 171.651 74.8597 158.543C74.8574 145.436 63.5386 134.773 49.6261 134.773Z" fill="#333333"/>
        <path d="M235.372 195.345C213.83 195.345 196.305 178.836 196.305 158.543C196.305 138.251 213.83 121.742 235.372 121.742C256.914 121.742 274.439 138.251 274.439 158.543C274.439 178.836 256.914 195.345 235.372 195.345ZM235.372 134.773C221.458 134.773 210.138 145.436 210.138 158.543C210.138 171.651 221.457 182.314 235.372 182.314C249.287 182.314 260.607 171.651 260.607 158.543C260.607 145.436 249.287 134.773 235.372 134.773Z" fill="#333333"/>
        <path d="M199.393 262.759C199.612 262.814 199.843 262.857 200.062 262.911C212.12 265.659 223.336 270.437 233.296 276.822C260.258 294.11 277.965 323.267 277.965 356.301V448.484H223.739H61.2481H7.03435V356.301C7.03435 323.267 24.729 294.11 51.6918 276.822C61.6515 270.437 72.8678 265.659 84.9255 262.911C85.1445 262.857 85.3751 262.814 85.5941 262.759" fill="#7091A4"/>
        <path d="M61.2481 313.83V448.484H7.03435V356.301C7.03435 323.267 24.729 294.11 51.6918 276.822C57.8013 287.898 61.2481 300.484 61.2481 313.83Z" fill="#FFD3AE"/>
        <path d="M277.966 356.301V448.484H223.741V313.83C223.741 300.484 227.187 287.898 233.297 276.822C260.258 294.11 277.966 323.267 277.966 356.301Z" fill="#FFD3AE"/>
        <path d="M277.966 356.301V377.9H225.285H223.741V313.83C223.741 300.484 227.187 287.898 233.297 276.822C260.258 294.11 277.966 323.267 277.966 356.301Z" fill="#7091A4"/>
        <path d="M61.2481 313.83V377.9H7.03435V356.301C7.03435 323.267 24.729 294.11 51.6918 276.822C57.8013 287.898 61.2481 300.484 61.2481 313.83Z" fill="#7091A4"/>
        <path d="M230.656 448.484H216.823V313.83C216.823 299.913 220.398 286.076 227.158 273.818L239.433 279.827C233.608 290.386 230.656 301.826 230.656 313.83V448.484Z" fill="#333333"/>
        <path d="M279.497 371.384H225.283V384.415H279.497V371.384Z" fill="#333333"/>
        <path d="M254.911 433.282C251.092 433.282 247.994 430.365 247.994 426.766V397.446C247.994 393.847 251.092 390.931 254.911 390.931C258.73 390.931 261.827 393.847 261.827 397.446V426.766C261.827 430.365 258.73 433.282 254.911 433.282Z" fill="white"/>
        <path opacity="0.44" d="M57.3864 289.853C39.8531 307.108 29.0749 330.521 29.0749 356.301V377.9H7.03435V356.301C7.03435 323.267 24.729 294.11 51.6918 276.822C53.9742 280.97 55.8889 285.325 57.3864 289.853Z" fill="#333333"/>
        <path opacity="0.44" d="M27.4345 377.9H8.26433V448.484H27.4345V377.9Z" fill="#333333"/>
        <path d="M277.966 455H7.03318C3.21413 455 0.116699 452.083 0.116699 448.484V356.301C0.116699 322.305 17.9416 290.58 47.7989 271.436C58.6532 264.477 70.5796 259.482 83.2471 256.59C83.3958 256.554 83.548 256.521 83.7001 256.488L83.8373 256.458L87.3601 269.059C87.1814 269.103 86.9981 269.145 86.8125 269.185L86.6754 269.215C86.6535 269.221 86.5716 269.24 86.5509 269.244C75.4891 271.765 65.0694 276.127 55.5835 282.209C29.5141 298.924 13.9508 326.622 13.9508 356.301V441.969H271.048V356.301C271.048 326.626 255.48 298.927 229.404 282.208C219.918 276.127 209.499 271.765 198.437 269.244C198.389 269.234 198.342 269.223 198.296 269.211L198.169 269.183C197.99 269.143 197.811 269.103 197.635 269.06L201.152 256.457L199.394 262.758L201.145 256.454L201.283 256.485C201.437 256.519 201.593 256.553 201.743 256.589C214.411 259.482 226.336 264.476 237.188 271.434C267.053 290.582 284.882 322.307 284.882 356.298V448.484C284.882 452.083 281.785 455 277.966 455Z" fill="#333333"/>
        <path d="M68.1645 448.484H54.3316V313.83C54.3316 301.826 51.3782 290.385 45.5546 279.827L57.829 273.818C64.5899 286.077 68.1645 299.913 68.1645 313.83V448.484Z" fill="#333333"/>
        <path d="M61.2469 371.384H7.03319V384.415H61.2469V371.384Z" fill="#333333"/>
        <path d="M199.393 262.759C183.14 273.065 163.566 279.081 142.494 279.081C121.421 279.081 101.848 273.065 85.5941 262.759C85.375 262.618 85.1445 262.477 84.9255 262.325C58.0895 245.015 40.4755 215.934 40.4755 182.977V158.543V102.619C40.4755 49.5419 86.1509 6.51447 142.494 6.51447C198.837 6.51447 244.512 49.5419 244.512 102.619V158.543V182.977C244.512 215.934 226.898 245.015 200.062 262.325C199.844 262.477 199.612 262.618 199.393 262.759Z" fill="#FFD3AE"/>
        <path opacity="0.44" d="M121.329 262.759C132.88 270.078 146.113 275.237 160.361 277.615C154.563 278.581 148.592 279.081 142.494 279.081C121.421 279.081 101.848 273.065 85.5941 262.759C85.375 262.618 85.1445 262.477 84.9255 262.325C58.0895 245.015 40.4755 215.934 40.4755 182.977V102.618C55.6803 102.618 68.0147 121.883 68.0147 107.549C68.0147 98.9155 75.5421 92.5303 83.9341 92.5303C86.0206 92.5303 88.1762 92.9321 90.2742 93.7899C95.5538 95.9401 100.949 97.7536 106.413 99.2304C104.741 101.576 103.75 104.41 103.75 107.549V132.601C103.75 146.935 91.4154 158.543 76.2107 158.543V182.977C76.2107 215.934 93.8247 245.015 120.661 262.325C120.88 262.477 121.111 262.618 121.329 262.759Z" fill="#333333"/>
        <path d="M244.516 102.619V125.966C210.637 144.861 167.594 140.495 138.763 115.248L111.305 91.2163C102.21 110.991 81.5065 123.794 58.6244 123.794H40.4802V102.619C40.4802 49.5387 86.152 6.51447 142.498 6.51447C170.671 6.51447 196.17 17.2651 214.637 34.6616C233.094 52.058 244.516 76.0786 244.516 102.619Z" fill="#FFAF6D"/>
        <path d="M199.429 144.167C195.97 144.167 192.494 143.991 189.008 143.638C168.306 141.539 149.304 133.373 134.056 120.019L113.215 101.779C101.592 119.357 81.0603 130.309 58.6256 130.309H40.4813V117.278H58.6256C78.7664 117.278 96.9533 106.032 104.959 88.6264C105.851 86.6859 107.689 85.2742 109.886 84.8398C112.087 84.4054 114.369 85.0038 116.013 86.4437L143.47 110.475C169.87 133.595 209.971 137.658 240.993 120.36L248.039 131.574C233.141 139.882 216.512 144.167 199.429 144.167Z" fill="#333333"/>
        <path d="M200.063 262.911V282.338C200.063 312.288 174.288 336.569 142.495 336.569C110.702 336.569 84.9266 312.288 84.9266 282.338V262.911C85.1456 262.857 85.3762 262.814 85.5952 262.759C101.849 273.065 121.423 279.081 142.495 279.081C163.567 279.081 183.141 273.065 199.394 262.759C199.612 262.814 199.844 262.857 200.063 262.911Z" fill="#FFD3AE"/>
        <path opacity="0.44" d="M198.265 263.465C190.495 277.398 179.187 289.321 165.481 298.16C165.262 298.312 165.031 298.454 164.812 298.595C148.558 308.9 128.985 314.916 107.912 314.916C100.42 314.916 93.1111 314.156 86.0794 312.701C85.3186 309.193 84.9266 305.566 84.9266 301.852V262.911C85.1456 262.857 85.3762 262.814 85.5952 262.759C101.849 273.065 121.423 279.081 142.495 279.081C163.082 279.081 182.242 273.336 198.265 263.465Z" fill="#333333"/>
        <path d="M181.256 37.8281C200.351 48.0064 214.527 65.4583 219.509 86.1613L181.256 37.8281Z" fill="#333333"/>
        <path d="M219.503 92.678C216.345 92.678 213.493 90.6267 212.764 87.6013C208.291 69.0158 195.565 52.9409 177.85 43.4988C174.525 41.7265 173.356 37.751 175.236 34.6192C177.116 31.4874 181.338 30.3852 184.662 32.1563C205.762 43.4032 220.922 62.561 226.255 84.7193C227.098 88.229 224.764 91.7191 221.039 92.514C220.524 92.6248 220.01 92.678 219.503 92.678Z" fill="white"/>
        <path d="M142.494 28.2328C147.832 28.2328 153.048 28.7345 158.092 29.6902L142.494 28.2328Z" fill="#333333"/>
        <path d="M158.098 36.2068C157.647 36.2068 157.188 36.1644 156.729 36.0776C152.073 35.1958 147.282 34.7484 142.494 34.7484C138.675 34.7484 135.577 31.8316 135.577 28.2329C135.577 24.6341 138.675 21.7173 142.494 21.7173C148.196 21.7173 153.904 22.2505 159.455 23.3028C163.2 24.013 165.626 27.4478 164.872 30.9748C164.213 34.0697 161.325 36.2068 158.098 36.2068Z" fill="white"/>
        <path d="M142.494 343.085C106.936 343.085 78.009 315.834 78.009 282.338V262.325H91.842V282.338C91.842 308.649 114.565 330.054 142.494 330.054C170.422 330.054 193.144 308.649 193.144 282.338V262.325H206.977V282.338C206.98 315.834 178.05 343.085 142.494 343.085Z" fill="#333333"/>
        <path d="M106.055 180.736C104.234 180.736 102.447 180.041 101.168 178.836C99.8766 177.62 99.1389 175.937 99.1389 174.221C99.1389 172.505 99.8766 170.833 101.168 169.617C102.77 168.107 105.156 167.412 107.404 167.836C107.854 167.923 108.28 168.042 108.707 168.205C109.122 168.368 109.525 168.574 109.894 168.802C110.274 169.041 110.632 169.313 110.943 169.617C111.266 169.921 111.554 170.246 111.808 170.605C112.061 170.963 112.269 171.343 112.442 171.734C112.614 172.125 112.753 172.538 112.834 172.95C112.926 173.374 112.972 173.797 112.972 174.221C112.972 174.644 112.926 175.079 112.834 175.502C112.753 175.915 112.614 176.328 112.442 176.719C112.269 177.109 112.061 177.49 111.808 177.837C111.554 178.195 111.266 178.532 110.943 178.836C109.663 180.041 107.877 180.736 106.055 180.736Z" fill="#333333"/>
        <path d="M184.442 180.736C183.993 180.736 183.532 180.693 183.093 180.617C182.655 180.53 182.217 180.4 181.802 180.237C181.376 180.074 180.984 179.879 180.604 179.64C180.223 179.401 179.866 179.129 179.555 178.836C179.232 178.532 178.944 178.195 178.69 177.837C178.436 177.49 178.229 177.109 178.056 176.719C177.883 176.328 177.745 175.915 177.664 175.502C177.572 175.079 177.526 174.644 177.526 174.221C177.526 173.797 177.572 173.374 177.664 172.95C177.745 172.538 177.883 172.125 178.056 171.734C178.229 171.343 178.436 170.963 178.69 170.605C178.944 170.246 179.232 169.921 179.555 169.617C179.866 169.313 180.223 169.041 180.604 168.802C180.984 168.574 181.376 168.368 181.802 168.205C182.217 168.042 182.655 167.923 183.093 167.836C185.341 167.412 187.727 168.107 189.33 169.617C189.653 169.921 189.941 170.246 190.194 170.605C190.448 170.963 190.655 171.343 190.828 171.734C191.001 172.125 191.14 172.538 191.22 172.95C191.313 173.374 191.359 173.797 191.359 174.221C191.359 174.644 191.313 175.079 191.22 175.502C191.14 175.915 191.001 176.328 190.828 176.719C190.655 177.109 190.448 177.49 190.194 177.837C189.941 178.195 189.653 178.532 189.33 178.836C188.05 180.041 186.264 180.736 184.442 180.736Z" fill="#333333"/>
        <path d="M134.49 195.465C130.671 195.465 127.574 192.548 127.574 188.949V170.644C127.574 167.165 124.57 164.335 120.875 164.335H87.9295C84.1105 164.335 81.0131 161.418 81.0131 157.819C81.0131 154.22 84.1105 151.304 87.9295 151.304H120.875C132.195 151.304 141.407 159.98 141.407 170.644V188.949C141.407 192.548 138.31 195.465 134.49 195.465Z" fill="#333333"/>
        <path d="M197.058 164.335H169.392C165.573 164.335 162.475 161.418 162.475 157.819C162.475 154.22 165.573 151.304 169.392 151.304H197.058C200.877 151.304 203.974 154.22 203.974 157.819C203.974 161.418 200.877 164.335 197.058 164.335Z" fill="#333333"/>
        <path d="M156.327 233.834H128.661C124.842 233.834 121.744 230.917 121.744 227.318C121.744 223.719 124.842 220.803 128.661 220.803H156.327C160.146 220.803 163.243 223.719 163.243 227.318C163.243 230.917 160.148 233.834 156.327 233.834Z" fill="#333333"/>
        <path opacity="0.44" d="M162.279 8.31709C115.386 16.9719 80.0079 55.9022 80.0079 102.619V119.896C73.3335 122.426 66.0942 123.794 58.6244 123.794H40.4802V102.619C40.4802 49.5387 86.152 6.51447 142.498 6.51447C149.265 6.51447 155.882 7.13344 162.279 8.31709Z" fill="#333333"/>
        <path d="M142.498 285.596C120.734 285.596 99.7244 279.568 81.737 268.165L81.5353 268.037C81.3358 267.91 81.1341 267.781 80.937 267.647C51.2722 248.474 33.5625 216.828 33.5625 182.978V102.62C33.5625 46.0355 82.4309 0 142.497 0C171.597 0 198.954 10.6735 219.527 30.055C240.101 49.4496 251.432 75.2196 251.432 102.62V182.978C251.432 216.832 233.723 248.478 204.052 267.651C203.858 267.783 203.66 267.91 203.462 268.035L203.307 268.135C185.272 279.568 164.262 285.596 142.498 285.596ZM142.498 13.03C90.0598 13.03 47.3967 53.2188 47.3967 102.618V182.977C47.3967 212.558 62.8884 240.211 88.8379 256.949C88.9059 256.992 88.9728 257.038 89.0396 257.083L89.5088 257.385C105.155 267.305 123.496 272.565 142.498 272.565C161.5 272.565 179.842 267.305 195.537 257.354L195.73 257.23C195.811 257.179 195.894 257.128 195.973 257.073C196.034 257.031 196.096 256.989 196.16 256.949C222.108 240.211 237.6 212.557 237.6 182.977V102.618C237.6 78.6978 227.707 56.1997 209.745 39.2669C191.786 22.3483 167.903 13.03 142.498 13.03Z" fill="#333333"/>
    </g>
    <defs>
        <clipPath id="clip0_1_151">
            <rect width="285" height="455" fill="white"/>
        </clipPath>
    </defs>
</svg>
