<svg width="1440" height="250" viewBox="0 0 1440 250" fill="none" xmlns="http://www.w3.org/2000/svg">
<g clip-path="url(#clip0_23_350)">
<path d="M0 144.8L40 130C80 115.2 160 85.6 240 58.8C320 32 400 8 480 2C560 -4 640 7.6 720 25.6C800 43.2 880 67.2 960 59.6C1040 52 1120 12.8 1200 14.4C1280 16 1360 59.2 1400 80.4L1440 101.6V250H1400C1360 250 1280 250 1200 250C1120 250 1040 250 960 250C880 250 800 250 720 250C640 250 560 250 480 250C400 250 320 250 240 250C160 250 80 250 40 250H0V144.8Z" fill="#00AEFF"/>
</g>
<defs>
<clipPath id="clip0_23_350">
<rect width="1440" height="250" fill="white"/>
</clipPath>
</defs>
</svg>
