<svg width="70" height="65" viewBox="0 0 70 65" fill="none" xmlns="http://www.w3.org/2000/svg">
    <g clip-path="url(#clip0_1_87)">
        <path d="M55.3757 12.3619L54.9431 12.31C54.9313 12.3085 54.9247 12.3019 54.9232 12.2901C54.9229 12.2835 54.9247 12.2781 54.9287 12.2741C55.3512 12.2472 55.7647 12.2472 56.1691 12.2741C56.1876 12.2753 56.206 12.271 56.222 12.2616C56.238 12.2522 56.2508 12.2382 56.2587 12.2215C56.2667 12.2047 56.2694 12.186 56.2665 12.1677C56.2636 12.1493 56.2553 12.1323 56.2426 12.1188C55.9667 11.8212 55.7032 11.5177 55.452 11.2083C54.6166 10.1779 53.7155 9.22987 52.7249 8.34865C52.1912 7.87425 51.835 7.56504 51.6564 7.42102C51.1982 7.05196 50.8542 6.78364 50.6243 6.61605C50.1079 6.23999 49.4593 5.79211 48.6785 5.27241C48.5044 5.15694 48.2763 5.06799 48.0857 4.93705C47.9361 4.83465 47.8144 4.76044 47.7205 4.7144C47.4822 4.59837 47.3227 4.51292 47.242 4.45804C47.0877 4.35344 46.9553 4.28162 46.8448 4.24257C46.819 4.23336 46.7963 4.22066 46.7768 4.20445C46.6398 4.0923 46.4829 4.06357 46.3315 3.97351C46.1658 3.87572 45.9951 3.82766 45.8337 3.72876C45.6879 3.63981 45.5381 3.61826 45.3917 3.52876C45.216 3.42103 45.0437 3.39285 44.8685 3.29395C44.7238 3.21274 44.5807 3.18401 44.4343 3.1155C44.0404 2.93042 43.6183 2.80224 43.2149 2.63705C43.0149 2.55528 42.7685 2.51495 42.552 2.40998C42.4166 2.34423 42.2945 2.31992 42.1558 2.28677C42.1035 2.27462 42.0041 2.24331 41.8575 2.19285C41.7319 2.14975 41.5706 2.10869 41.3735 2.06964C41.2221 2.03981 41.0547 1.92931 40.8608 1.89837C40.5149 1.84368 40.1823 1.71219 39.8586 1.65252C39.5188 1.59009 39.1956 1.50169 38.8481 1.45196C38.5645 1.41182 38.2834 1.35712 38.005 1.28788C37.789 1.23428 37.5752 1.24092 37.352 1.20224C37.1785 1.17278 37.0183 1.15196 36.8713 1.13981C36.563 1.11384 36.2752 1.02324 35.9735 1.01716C35.4072 1.00556 34.8133 0.926551 34.2879 0.923236C33.5575 0.918816 32.8269 0.921946 32.0962 0.932628C31.6282 0.93981 31.0796 1.0144 30.5652 1.02158C30.2707 1.026 29.9879 1.11826 29.7514 1.14036C29.2173 1.19045 28.6868 1.26467 28.1597 1.36301C28.1571 1.36338 28.0956 1.37738 27.9752 1.405C27.7028 1.46688 27.4282 1.48346 27.0978 1.5713C26.9881 1.60077 26.8313 1.63373 26.6276 1.6702C26.3674 1.71716 26.1194 1.81329 25.8768 1.86467C25.7671 1.88824 25.6571 1.91182 25.547 1.93539C25.3801 1.97185 25.2122 2.06191 25.0282 2.09893C24.8619 2.13263 24.7475 2.17738 24.6039 2.23318C24.4166 2.30556 24.1934 2.33042 23.9923 2.40998C23.6464 2.54699 23.2912 2.66025 22.9404 2.78567C22.7995 2.83594 22.6437 2.91992 22.484 2.97185C22.33 3.02231 22.2151 3.06504 22.1392 3.10003C21.8402 3.23852 21.5374 3.36854 21.231 3.49009C20.9606 3.59764 20.361 3.89487 19.4321 4.3818C19.0818 4.56522 18.7847 4.73723 18.5409 4.89782C18.5028 4.92268 18.4542 4.93373 18.4083 4.96136C17.4672 5.52894 16.5556 6.14018 15.6735 6.79506C14.5494 7.62931 13.4219 8.64128 12.2912 9.83097C12.005 10.1321 11.7 10.4978 11.4011 10.8293C11.021 11.2509 10.6691 11.7315 10.2868 12.1696C10.28 12.1776 10.2756 12.1873 10.2741 12.1977C10.2727 12.208 10.2742 12.2186 10.2785 12.2281C10.2828 12.2376 10.2897 12.2456 10.2984 12.2512C10.3071 12.2568 10.3173 12.2597 10.3276 12.2597L13.3862 12.2868L13.3089 12.2945C13.2993 12.2956 13.2969 12.3002 13.3017 12.3083L13.3089 12.321C13.3181 12.3369 13.3136 12.345 13.2956 12.3453L12.8846 12.3591C12.0289 12.3569 11.1733 12.3604 10.3177 12.3696C10.1702 12.3707 10.1133 12.2039 10.2011 12.0973C10.6923 11.5028 11.2067 10.8603 11.6846 10.3265C13.096 8.75123 14.6641 7.3481 16.389 6.11716C16.6634 5.92121 17.1046 5.62802 17.7127 5.2376C19.2934 4.22213 21.0122 3.38511 22.7625 2.70666C23.0903 2.57959 23.437 2.45583 23.8028 2.33539C24.3243 2.16338 24.8492 2.00187 25.3774 1.85086C25.4764 1.8225 25.575 1.79138 25.6729 1.75749C26.0067 1.64147 26.373 1.59009 26.7028 1.50003C27.0111 1.4155 27.347 1.37241 27.6365 1.30666C28.0431 1.21495 28.4542 1.14957 28.8696 1.11053C28.9654 1.10169 29.0906 1.07793 29.2453 1.03926C29.5083 0.973511 29.7928 0.986219 30.037 0.943125C30.2164 0.911449 30.356 0.897453 30.4558 0.901136C30.7733 0.912185 31.0864 0.879957 31.3951 0.804451C31.4488 0.791191 31.5363 0.784193 31.6575 0.783457C32.6424 0.776459 33.6275 0.77388 34.6127 0.775722C35.0442 0.776827 35.4619 0.883456 35.8967 0.896164C36.1136 0.902425 36.3295 0.92342 36.5442 0.959147C36.7343 0.990639 36.9216 0.980694 37.1133 0.998374C37.1597 1.00279 37.2685 1.02729 37.4398 1.07185C37.589 1.11053 37.7431 1.10335 37.8873 1.13484C38.1094 1.18346 38.3348 1.18456 38.5464 1.23705C38.7851 1.29598 39.0258 1.3457 39.2685 1.38622C39.6547 1.45031 40.0221 1.55141 40.4415 1.64423C40.6488 1.69027 40.9892 1.78917 41.4625 1.94091C41.6741 2.00887 41.9453 2.05307 42.179 2.13981C42.3962 2.22047 42.6183 2.27904 42.8288 2.36688C43.0625 2.46467 43.3011 2.50666 43.5337 2.61495C43.6663 2.67683 43.7939 2.71661 43.926 2.76854C44.9232 3.16191 45.8995 3.59009 46.8486 4.09395C47.607 4.49653 48.224 4.84644 48.6995 5.14368C49.0439 5.35878 49.5295 5.68806 50.1564 6.13152C52.2967 7.64478 54.2348 9.47241 55.8553 11.5354C55.9497 11.6553 56.3879 12.0188 56.3801 12.284C56.3799 12.292 56.3776 12.2998 56.3735 12.3065C56.3693 12.3132 56.3634 12.3186 56.3564 12.3221C56.2794 12.3623 56.2094 12.3803 56.1464 12.3763C55.8893 12.3597 55.6324 12.3549 55.3757 12.3619Z" fill="#F7FAFD"/>
        <path d="M54.9287 12.274L41.7105 12.2796C41.2762 12.263 40.8416 12.2565 40.4066 12.2602C40.3171 12.2608 40.1724 12.2436 40.1088 12.2144C38.8646 11.6392 37.6939 11.2641 36.3519 11.0464C36.1453 11.0127 35.9199 11.0083 35.6994 10.9807C35.495 10.9556 35.3317 10.9409 35.2094 10.9365C34.3416 10.9077 33.5858 10.9024 32.942 10.9204C32.7061 10.9265 32.4702 10.9829 32.184 10.9917C31.9834 10.9983 31.7564 11.0663 31.6182 11.0917C31.3869 11.1341 31.1564 11.1792 30.9265 11.2271C30.6989 11.2746 30.4547 11.3575 30.2155 11.4171C30.0066 11.4694 29.8302 11.5221 29.6862 11.5751C29.4332 11.6683 29.1805 11.7624 28.9282 11.8575C28.6878 11.9475 28.4144 12.0906 28.1475 12.189C28.0363 12.2298 27.9149 12.2512 27.7834 12.253C26.947 12.2637 26.1101 12.2755 25.2729 12.2884L13.3862 12.2867L10.3276 12.2597C10.3173 12.2597 10.3071 12.2568 10.2984 12.2511C10.2897 12.2455 10.2828 12.2375 10.2784 12.228C10.2741 12.2186 10.2726 12.208 10.2741 12.1977C10.2756 12.1873 10.28 12.1776 10.2867 12.1696C10.6691 11.7315 11.021 11.2508 11.4011 10.8293C11.7 10.4978 12.005 10.132 12.2912 9.83094C13.4219 8.64125 14.5494 7.62928 15.6735 6.79503C16.5556 6.14015 17.4672 5.52891 18.4083 4.96133C18.4541 4.9337 18.5028 4.92265 18.5409 4.89779C18.7847 4.7372 19.0818 4.56519 19.432 4.38177C20.361 3.89484 20.9606 3.59761 21.2309 3.49006C21.5374 3.36851 21.8401 3.23849 22.1392 3.1C22.2151 3.06501 22.33 3.02228 22.484 2.97182C22.6436 2.91989 22.7994 2.83591 22.9403 2.78564C23.2912 2.66022 23.6464 2.54696 23.9923 2.40995C24.1934 2.33039 24.4166 2.30553 24.6039 2.23315C24.7475 2.17735 24.8619 2.1326 25.0282 2.0989C25.2122 2.06188 25.3801 1.97182 25.547 1.93536C25.6571 1.91179 25.767 1.88821 25.8768 1.86464C26.1193 1.81326 26.3674 1.71713 26.6276 1.67017C26.8313 1.6337 26.988 1.60074 27.0978 1.57127C27.4282 1.48343 27.7028 1.46685 27.9751 1.40497C28.0956 1.37735 28.1571 1.36335 28.1597 1.36298C28.6867 1.26464 29.2173 1.19042 29.7514 1.14033C29.9878 1.11823 30.2707 1.02597 30.5652 1.02155C31.0796 1.01437 31.6282 0.93978 32.0961 0.932597C32.8269 0.921916 33.5575 0.918785 34.2878 0.923205C34.8133 0.92652 35.4072 1.00553 35.9735 1.01713C36.2751 1.0232 36.563 1.11381 36.8713 1.13978C37.0182 1.15193 37.1785 1.17274 37.3519 1.20221C37.5751 1.24088 37.789 1.23425 38.005 1.28785C38.2834 1.35709 38.5645 1.41179 38.8481 1.45193C39.1956 1.50166 39.5188 1.59006 39.8586 1.65249C40.1823 1.71216 40.5149 1.84365 40.8608 1.89834C41.0547 1.92928 41.2221 2.03978 41.3735 2.06961C41.5705 2.10866 41.7319 2.14972 41.8575 2.19282C42.0041 2.24328 42.1035 2.27459 42.1558 2.28674C42.2945 2.31989 42.4166 2.3442 42.5519 2.40995C42.7685 2.51492 43.0149 2.55525 43.2149 2.63702C43.6182 2.80221 44.0403 2.93039 44.4343 3.11547C44.5807 3.18398 44.7238 3.21271 44.8685 3.29392C45.0436 3.39282 45.216 3.421 45.3917 3.52873C45.5381 3.61823 45.6879 3.63978 45.8337 3.72873C45.995 3.82762 46.1657 3.87569 46.3315 3.97348C46.4829 4.06354 46.6398 4.09227 46.7768 4.20442C46.7963 4.22063 46.819 4.23333 46.8448 4.24254C46.9553 4.28158 47.0877 4.35341 47.242 4.45801C47.3227 4.51289 47.4821 4.59834 47.7204 4.71437C47.8144 4.76041 47.9361 4.83462 48.0856 4.93702C48.2762 5.06796 48.5044 5.15691 48.6785 5.27238C49.4593 5.79208 50.1079 6.23996 50.6243 6.61602C50.8541 6.78361 51.1982 7.05193 51.6564 7.42099C51.835 7.56501 52.1912 7.87422 52.7249 8.34862C53.7155 9.22983 54.6166 10.1779 55.4519 11.2083C55.7031 11.5177 55.9667 11.8212 56.2425 12.1188C56.2552 12.1323 56.2636 12.1493 56.2665 12.1676C56.2693 12.1859 56.2666 12.2047 56.2587 12.2215C56.2508 12.2382 56.238 12.2522 56.222 12.2616C56.206 12.2709 56.1876 12.2753 56.1691 12.274C55.7646 12.2471 55.3512 12.2471 54.9287 12.274Z" fill="#F7FAFD"/>
        <path d="M41.7105 12.2796L41.3768 12.284C41.3639 12.2844 41.3553 12.2906 41.3509 12.3028C41.3468 12.3142 41.3387 12.3199 41.3265 12.3199C40.9306 12.3151 40.5352 12.3242 40.1404 12.347C40.0733 12.3315 40.0311 12.3192 40.0138 12.31C39.5801 12.0868 39.1288 11.9354 38.6757 11.7603C38.5 11.6923 38.321 11.6658 38.1448 11.5956C37.8834 11.4912 37.6072 11.4713 37.3492 11.3884C37.0055 11.2785 36.6696 11.2619 36.3199 11.1829C36.0862 11.1299 35.8641 11.1293 35.6249 11.0768C35.5118 11.0518 35.4048 11.0389 35.3039 11.0382C34.0947 11.0301 33.2752 11.031 32.8453 11.0409C32.6757 11.0453 32.4862 11.1155 32.2906 11.1243C32.0299 11.1365 31.789 11.2227 31.547 11.2453C31.1625 11.2813 30.7967 11.426 30.4171 11.5006C30.3085 11.522 30.182 11.5595 30.0376 11.6133C29.8625 11.6785 29.6801 11.7072 29.5133 11.7774C29.2575 11.8846 28.9818 11.9641 28.7437 12.0697C28.5521 12.1544 28.37 12.2356 28.1973 12.3133C28.123 12.3464 28.0422 12.3636 27.9602 12.3636L25.7238 12.3575C25.6475 12.2952 25.4973 12.2722 25.2729 12.2884C26.1102 12.2755 26.947 12.2638 27.7834 12.2531C27.9149 12.2512 28.0363 12.2299 28.1475 12.189C28.4144 12.0906 28.6879 11.9476 28.9282 11.8575C29.1805 11.7625 29.4332 11.6684 29.6862 11.5752C29.8302 11.5221 30.0067 11.4695 30.2155 11.4172C30.4547 11.3575 30.6989 11.2746 30.9265 11.2271C31.1564 11.1792 31.3869 11.1341 31.6183 11.0918C31.7564 11.0663 31.9834 10.9984 32.184 10.9918C32.4702 10.9829 32.7061 10.9266 32.942 10.9205C33.5858 10.9024 34.3416 10.9078 35.2094 10.9365C35.3317 10.9409 35.495 10.9557 35.6995 10.9807C35.9199 11.0083 36.1453 11.0127 36.352 11.0464C37.6939 11.2641 38.8647 11.6393 40.1089 12.2144C40.1724 12.2437 40.3171 12.2608 40.4067 12.2603C40.8416 12.2566 41.2763 12.263 41.7105 12.2796Z" fill="#F7FAFD"/>
        <path d="M41.7105 12.2796L54.9287 12.274C54.9247 12.2781 54.9228 12.2834 54.9232 12.2901C54.9247 12.3019 54.9313 12.3085 54.9431 12.31L55.3757 12.3619L40.1403 12.347C40.5352 12.3241 40.9306 12.3151 41.3265 12.3199C41.3387 12.3199 41.3468 12.3142 41.3508 12.3028C41.3552 12.2906 41.3639 12.2844 41.3768 12.284L41.7105 12.2796Z" fill="#F7FAFD"/>
        <path d="M13.3862 12.2868L25.2729 12.2884C25.4972 12.2722 25.6475 12.2952 25.7237 12.3575L12.8845 12.3591L13.2956 12.3453C13.3136 12.3449 13.318 12.3368 13.3088 12.321L13.3016 12.3083C13.2969 12.3002 13.2993 12.2956 13.3088 12.2945L13.3862 12.2868Z" fill="#F7FAFD"/>
        <path d="M1.68732 14.0768C1.96908 14.1037 2.25159 14.1168 2.53483 14.1161C2.61218 14.1161 2.70831 14.1542 2.77627 14.1536C3.09966 14.1525 3.42268 14.1604 3.74533 14.1774L0.714941 14.2138C0.699403 14.214 0.684119 14.2178 0.670303 14.2249C0.656488 14.232 0.64452 14.2422 0.63535 14.2547C0.62618 14.2672 0.62006 14.2817 0.617477 14.2969C0.614893 14.3122 0.615917 14.3278 0.620466 14.3426C0.659508 14.4719 0.690079 14.6033 0.712179 14.737C0.729306 14.8415 0.721018 14.9884 0.751958 15.1111C0.786949 15.2503 0.807022 15.3409 0.812178 15.3829C0.850116 15.679 0.908864 15.9711 0.988422 16.2591C1.06687 16.5448 1.09063 16.8603 1.1829 17.1569C1.22304 17.2866 1.25398 17.4188 1.27571 17.5536C1.32875 17.8829 1.46632 18.158 1.53152 18.4818C1.56853 18.6674 1.66301 18.821 1.70389 18.9956C1.7201 19.0663 1.73575 19.1374 1.75085 19.2089C1.80002 19.4442 1.9177 19.6525 1.98676 19.8884C2.02268 20.0111 2.09781 20.1205 2.13207 20.2177C2.18437 20.3676 2.23078 20.4903 2.27129 20.5857C2.41384 20.9216 2.51605 21.2359 2.67848 21.5442C2.95085 22.0619 3.19339 22.5719 3.51052 23.0829C3.60334 23.2328 3.71752 23.4216 3.85306 23.6492C4.07074 24.0146 4.35656 24.3969 4.71052 24.7962C4.7956 24.8923 4.8387 25.0061 4.93207 25.1045C5.05362 25.2315 5.2527 25.4448 5.52931 25.7442C6.28437 26.5615 7.18069 27.2582 8.21826 27.8343C8.30629 27.8829 8.41642 27.9359 8.54864 27.9934C8.82765 28.1138 9.0945 28.2785 9.4061 28.2807C12.0518 28.2962 16.458 28.3039 22.6249 28.3039C22.8363 28.3039 23.2041 28.314 23.7282 28.3343C24.2995 28.3564 24.8709 28.3494 25.4426 28.3133C25.4531 28.3126 25.4636 28.314 25.4735 28.3175C25.4835 28.3209 25.4927 28.3262 25.5005 28.3332C25.5084 28.3402 25.5148 28.3487 25.5193 28.3582C25.5239 28.3676 25.5265 28.3779 25.5271 28.3884C25.5558 28.9383 25.5566 29.4956 25.5293 30.0603C25.5072 30.0415 25.4864 30.0076 25.4669 29.9586L25.4746 28.6271C25.4748 28.6022 25.47 28.5776 25.4606 28.5545C25.4512 28.5315 25.4373 28.5106 25.4198 28.493C25.4023 28.4754 25.3815 28.4614 25.3585 28.4519C25.3356 28.4424 25.311 28.4375 25.2862 28.4376C20.0056 28.4424 14.7192 28.4437 9.4271 28.4415C9.32249 28.4415 9.22249 28.4225 9.1271 28.3846C8.72894 28.2266 8.43944 28.0986 8.25859 28.0006C7.14072 27.3951 6.19505 26.6696 5.42157 25.8243C5.14533 25.5227 4.8735 25.2575 4.64754 24.963C4.30555 24.5172 3.97516 24.1011 3.67461 23.605C3.4829 23.289 3.27019 22.9763 3.105 22.6569C2.93667 22.3328 2.77074 22.0074 2.60721 21.6807C2.46356 21.3934 2.3212 21.0719 2.18014 20.7161C2.00113 20.2647 1.77406 19.8067 1.65859 19.3348C1.61328 19.1492 1.53483 18.9525 1.48897 18.7956C1.38769 18.4475 1.28548 18.0997 1.18234 17.752C1.06798 17.3636 1.00942 16.9288 0.901681 16.5161C0.819361 16.2 0.779582 15.8216 0.667427 15.4812C0.619177 15.3347 0.593394 15.0923 0.590079 14.7542C0.589343 14.6551 0.550116 14.5148 0.4724 14.3332C0.465659 14.3176 0.465263 14.2998 0.471295 14.2835C0.524702 14.1358 0.625438 14.0636 0.773505 14.0669C1.07811 14.0742 1.38271 14.0776 1.68732 14.0768Z" fill="#F7FAFD"/>
        <path d="M28.3696 65.221C28.2193 65.1565 28.0354 65.1381 27.8177 65.1658C28.4483 65.1385 29.0777 65.1173 29.7061 65.1022C29.9613 65.0961 30.2265 65.0525 30.4906 65.0337C30.7359 65.016 30.93 64.9895 31.0729 64.9542C31.5875 64.826 32.0398 64.6381 32.4298 64.3906C33.2332 63.8805 33.9315 63.2076 34.5249 62.3718C34.6713 62.1658 34.8774 61.9094 35.0304 61.6597C35.1659 61.4387 35.2993 61.2162 35.4304 60.9923C35.7514 60.4459 36.0249 59.8635 36.3022 59.289C36.3602 59.1691 36.4033 59.0066 36.4774 58.8746C36.5685 58.7116 36.5917 58.5497 36.6779 58.3901C36.7751 58.2083 36.8044 58.0304 36.8917 57.8514C36.9945 57.6409 37.0282 57.4381 37.1205 57.2309C37.1683 57.1234 37.2063 57.0158 37.2343 56.9083C37.2956 56.6746 37.4094 56.4823 37.453 56.2425C37.4763 56.114 37.5123 55.9893 37.5613 55.8685C37.6103 55.7488 37.6437 55.6472 37.6613 55.5635C37.696 55.4019 37.7221 55.2974 37.7398 55.2503C37.8348 54.9976 37.8901 54.7952 37.9055 54.6431C37.9133 54.5665 37.9426 54.4724 37.9934 54.3608C38.0357 54.268 38.0643 54.1753 38.079 54.0829C38.1103 53.888 38.1591 53.6978 38.2254 53.5122C38.2989 53.3072 38.3376 53.1138 38.4 52.9122C38.4519 52.7424 38.4877 52.5906 38.5072 52.4569C38.5389 52.2433 38.5713 52.0298 38.6044 51.8166C38.6238 51.6928 38.7138 51.6044 38.7354 51.4713C38.7678 51.2731 38.788 51.0735 38.7961 50.8724C38.8017 50.7381 38.9193 50.6011 38.9442 50.4613C38.9796 50.2661 39.0015 50.0693 39.01 49.8707C39.0166 49.7254 39.0635 49.6348 39.1088 49.5039C39.1867 49.2796 39.1956 49.0138 39.2205 48.7779C39.2337 48.6486 39.2615 48.5015 39.3039 48.3365C39.3827 48.0282 39.4319 47.7147 39.4514 47.3961C39.4554 47.3298 39.4696 47.2648 39.4939 47.2011C39.5293 47.1076 39.5483 47.0424 39.5508 47.0055C39.5623 46.8173 39.5798 46.6602 39.6033 46.5343C39.6547 46.2575 39.6475 46.0343 39.6718 45.7746C39.6733 45.7624 39.6788 45.7529 39.6884 45.7459C39.6939 45.7422 39.6989 45.7381 39.7033 45.7337C39.7114 45.7263 39.717 45.7162 39.7199 45.7033C39.768 45.4906 39.726 45.2746 39.7989 45.0768C39.8604 44.9096 39.8869 44.7925 39.8785 44.7254C39.8494 44.4974 39.8687 44.2766 39.9365 44.063C39.9641 43.9753 39.9779 43.8904 39.9779 43.8083C39.9779 43.5674 40.0107 43.3304 40.0763 43.0972C40.077 43.0947 40.0764 43.0923 40.0746 43.0901C40.0367 43.0363 40.0348 43.0379 40.0691 43.095C40.0694 43.0961 40.0694 43.0974 40.0691 43.0989C40.0661 43.1096 40.0654 43.1182 40.0669 43.1249C40.0775 43.1739 40.0816 43.1726 40.079 43.121C40.0647 42.8322 40.0764 42.5449 40.1144 42.2591C40.1481 42.0044 40.0768 41.7685 40.1796 41.516C40.342 41.1155 40.2635 40.7116 40.3216 40.2884C40.3536 40.0538 40.3646 39.8179 40.3547 39.5807C40.351 39.4915 40.3624 39.402 40.389 39.3122C40.4674 39.0437 40.5028 38.7628 40.495 38.4696C40.4845 38.0696 40.5602 37.6453 40.5641 37.2729C40.5674 36.9867 40.5453 36.6851 40.6238 36.4066C40.7304 36.0293 40.7083 35.5597 40.7155 34.8978C40.7177 34.6613 40.7735 34.4309 40.774 34.1862C40.7751 33.7582 40.7763 33.33 40.7774 32.9017C40.7774 32.6812 40.8232 32.4702 40.8525 32.2508C40.8724 32.102 40.8834 31.9383 40.8856 31.7597C40.8923 31.2422 40.8998 30.7245 40.9083 30.2066C40.9112 30.0453 40.9291 29.7718 40.9619 29.3862C40.9877 29.0805 40.9958 28.7687 40.9862 28.4508C40.9851 28.42 40.9956 28.39 41.0157 28.3665C41.0357 28.343 41.0638 28.3277 41.0945 28.3238C41.1928 28.3112 41.3068 28.305 41.4365 28.305C49.5212 28.3017 57.6059 28.2939 65.6906 28.2818C65.761 28.2818 65.8284 28.2797 65.8928 28.2757C65.9008 28.2752 65.9085 28.2731 65.9155 28.2693C65.9225 28.2656 65.9287 28.2604 65.9335 28.2541C65.9384 28.2477 65.9419 28.2404 65.9437 28.2326C65.9456 28.2248 65.9457 28.2167 65.9442 28.2088C65.9166 28.0691 65.8602 27.9586 65.8591 27.8122C65.8564 27.5343 65.7702 27.216 65.7359 27.0155C65.6321 26.41 65.4658 25.8177 65.3652 25.2133C65.3343 25.0282 65.2525 24.8503 65.2171 24.6564C65.1591 24.337 65.0343 24.0663 64.9658 23.7547C64.9193 23.5414 64.8171 23.3481 64.7658 23.1276C64.7275 22.9626 64.6897 22.8354 64.6525 22.7459C64.4389 22.2335 64.2333 21.7181 64.0359 21.1995C63.9689 21.0227 63.8635 20.8164 63.7199 20.5807C63.6674 20.4939 63.6481 20.3718 63.6044 20.3044C63.5396 20.2053 63.4882 20.1171 63.4503 20.0398C63.305 19.7414 63.1442 19.4658 62.9718 19.1823C62.9227 19.1011 62.8403 19.0304 62.7917 18.9332C62.7343 18.819 62.6991 18.7523 62.6862 18.7332C62.1661 17.9637 61.6387 17.3002 61.1039 16.7425C60.5278 16.1418 59.8372 15.5669 59.0321 15.0177C58.9691 14.9746 58.8812 14.9658 58.8149 14.921C58.5 14.7066 58.1691 14.5201 57.8221 14.3613C57.6702 14.2912 57.4061 14.2204 57.2011 14.2188C56.0615 14.2074 54.9219 14.1906 53.7823 14.1685C53.8479 14.1619 53.9407 14.1613 54.0608 14.1669C54.1639 14.1713 54.2337 14.1413 54.2702 14.0768C55.3192 14.0805 56.3682 14.0798 57.4171 14.0746C57.4602 14.074 57.5337 14.0978 57.5801 14.1243C57.7481 14.2205 57.9464 14.2707 58.0967 14.3475C59.421 15.0271 60.5254 15.9271 61.5188 17.0282C61.7984 17.3376 62.0635 17.7055 62.3321 18.0508C62.6635 18.4763 62.9354 18.9475 63.2381 19.4011C63.3306 19.54 63.4628 19.7906 63.6348 20.153C63.8022 20.5061 64.0138 20.8304 64.1542 21.1867C64.3416 21.6637 64.5322 22.1394 64.726 22.6138C64.8442 22.9037 65.0192 23.4623 65.2508 24.2895C65.2516 24.2917 65.2912 24.4157 65.3696 24.6613C65.4691 24.9735 65.4713 25.274 65.5801 25.6033C65.6166 25.7138 65.644 25.8313 65.6624 25.9558C65.6982 26.1996 65.751 26.4398 65.821 26.6762C65.8995 26.942 65.8901 27.2149 65.9453 27.489C65.949 27.5085 65.9591 27.6007 65.9757 27.7658C66.0083 28.0967 66.3017 28.442 65.7011 28.442C57.6006 28.442 49.5002 28.4416 41.4 28.4409C41.2359 28.4409 41.0718 28.4437 41.1006 28.6619C41.1367 28.9341 41.1409 29.1298 41.1133 29.2492C40.9652 29.8884 41.0127 30.5696 41.0177 31.4564C41.0192 31.7315 41.0061 32.0604 40.9785 32.4431C40.9416 32.9477 40.9271 33.4532 40.9348 33.9597C40.9414 34.4072 40.7884 34.8166 40.8039 35.2707C40.8182 35.6862 40.8004 36.0996 40.7503 36.5111C40.7319 36.6602 40.7243 36.8249 40.7276 37.005C40.7339 37.3324 40.7035 37.6564 40.6365 37.9768C40.5542 38.368 40.6028 38.7868 40.5597 39.189C40.5398 39.3739 40.5291 39.5348 40.5276 39.6718C40.5243 39.9006 40.5343 40.074 40.4691 40.3094C40.4193 40.4902 40.3947 40.6744 40.395 40.8619C40.395 41.2448 40.3287 41.5961 40.3271 41.9718C40.326 42.274 40.1912 42.5077 40.1956 42.7873C40.1985 42.9862 40.1814 43.1831 40.1442 43.3779C40.0906 43.6586 40.1558 43.9381 40.0481 44.2028C40.0042 44.3111 39.9847 44.389 39.9895 44.4365C40.009 44.6365 39.9943 44.8328 39.9453 45.0254C39.9022 45.1934 39.9155 45.3332 39.9061 45.4984C39.9028 45.5595 39.881 45.6687 39.8409 45.826C39.8011 45.9834 39.8105 46.1503 39.7818 46.2923C39.7448 46.4735 39.7022 46.6249 39.6978 46.8227C39.6923 47.0774 39.6055 47.2895 39.5862 47.5425C39.5724 47.7182 39.5094 47.8845 39.4939 48.0481C39.4652 48.3472 39.4177 48.6429 39.3514 48.9354C39.3157 49.0919 39.2851 49.2722 39.2597 49.4762C39.2166 49.8227 39.105 50.1608 39.0569 50.4873C39.0254 50.6984 38.9967 50.8895 38.9343 51.1077C38.8376 51.447 38.8155 51.7774 38.7166 52.1227C38.672 52.2803 38.6313 52.4809 38.5945 52.7243C38.586 52.7803 38.5527 52.891 38.4945 53.0564C38.4017 53.3204 38.3796 53.6028 38.2934 53.8751C38.2072 54.1492 38.1602 54.426 38.0669 54.6956C37.9868 54.9276 37.9503 55.1934 37.8553 55.4343C37.7597 55.6768 37.7199 55.9094 37.6293 56.1464C37.5514 56.3497 37.5111 56.5702 37.4221 56.7768C37.379 56.8774 37.3414 56.9873 37.3094 57.1066C37.2575 57.3011 37.1597 57.4718 37.105 57.6613C37.0453 57.8669 36.9326 58.0956 36.8718 58.2525C36.3871 59.5077 35.7978 60.6783 35.1039 61.7641C34.6457 62.4805 34.0895 63.1486 33.4354 63.7685C32.7632 64.4053 31.9849 64.847 31.1006 65.0934C30.9694 65.1298 30.8138 65.1507 30.6337 65.1558C30.2873 65.1652 29.9254 65.2111 29.6044 65.2155C29.186 65.221 28.7744 65.2228 28.3696 65.221Z" fill="#F7FAFD"/>
        <path d="M1.68726 14.0768H54.2701C54.2337 14.1412 54.1639 14.1713 54.0607 14.1668C53.9407 14.1613 53.8478 14.1619 53.7823 14.1685L3.74527 14.1773C3.42261 14.1604 3.09959 14.1525 2.77621 14.1536C2.70825 14.1541 2.61212 14.116 2.53477 14.116C2.25153 14.1167 1.96902 14.1037 1.68726 14.0768Z" fill="#F7FAFD"/>
        <path d="M53.7823 14.1685C54.9219 14.1906 56.0615 14.2074 57.2011 14.2188C57.4061 14.2205 57.6702 14.2912 57.8221 14.3613C58.1691 14.5201 58.5 14.7066 58.8149 14.921C58.8812 14.9658 58.9691 14.9746 59.0321 15.0177C59.8372 15.5669 60.5278 16.1418 61.1039 16.7426C61.6387 17.3002 62.1661 17.9637 62.6862 18.7332C62.6991 18.7523 62.7343 18.819 62.7917 18.9332C62.8404 19.0304 62.9227 19.1011 62.9718 19.1823C63.1442 19.4658 63.305 19.7414 63.4503 20.0398C63.4882 20.1171 63.5396 20.2053 63.6044 20.3044C63.6481 20.3718 63.6674 20.4939 63.7199 20.5807C63.8636 20.8164 63.9689 21.0227 64.0359 21.1995C64.2334 21.7181 64.4389 22.2335 64.6525 22.7459C64.6897 22.8354 64.7275 22.9626 64.7658 23.1276C64.8171 23.3481 64.9194 23.5414 64.9658 23.7547C65.0343 24.0663 65.1591 24.337 65.2171 24.6564C65.2525 24.8503 65.3343 25.0282 65.3652 25.2133C65.4658 25.8177 65.6321 26.41 65.7359 27.0155C65.7702 27.216 65.8564 27.5343 65.8591 27.8122C65.8602 27.9586 65.9166 28.0691 65.9442 28.2089C65.9457 28.2167 65.9456 28.2248 65.9437 28.2326C65.9419 28.2404 65.9384 28.2477 65.9336 28.2541C65.9287 28.2604 65.9225 28.2656 65.9155 28.2693C65.9085 28.2731 65.9008 28.2752 65.8928 28.2757C65.8284 28.2798 65.761 28.2818 65.6906 28.2818C57.6059 28.2939 49.5212 28.3017 41.4365 28.305C41.3068 28.305 41.1928 28.3112 41.0945 28.3238C41.0638 28.3277 41.0357 28.343 41.0157 28.3665C40.9957 28.39 40.9851 28.42 40.9862 28.4508C40.9958 28.7687 40.9877 29.0805 40.9619 29.3862C40.9291 29.7718 40.9113 30.0453 40.9083 30.2066C40.8998 30.7245 40.8923 31.2422 40.8857 31.7597C40.8835 31.9383 40.8724 32.102 40.8525 32.2508C40.8232 32.4702 40.7774 32.6812 40.7774 32.9017C40.7763 33.33 40.7752 33.7582 40.7741 34.1862C40.7735 34.4309 40.7177 34.6613 40.7155 34.8978C40.7083 35.5597 40.7304 36.0293 40.6238 36.4066C40.5453 36.6851 40.5674 36.9867 40.5641 37.2729C40.5602 37.6453 40.4846 38.0696 40.4951 38.4696C40.5028 38.7628 40.4674 39.0437 40.389 39.3122C40.3625 39.402 40.351 39.4915 40.3547 39.5807C40.3647 39.8179 40.3536 40.0538 40.3216 40.2884C40.2636 40.7116 40.342 41.1155 40.1796 41.516C40.0768 41.7685 40.1481 42.0044 40.1144 42.2591C40.0765 42.5449 40.0647 42.8322 40.079 43.121C40.0816 43.1726 40.0776 43.1739 40.0669 43.1249C40.0654 43.1182 40.0661 43.1096 40.0691 43.0989C40.0695 43.0974 40.0695 43.0961 40.0691 43.095C40.0348 43.0379 40.0367 43.0363 40.0746 43.0901C40.0765 43.0923 40.077 43.0947 40.0763 43.0972C40.0107 43.3304 39.9779 43.5674 39.9779 43.8083C39.9779 43.8904 39.9641 43.9753 39.9365 44.063C39.8687 44.2766 39.8494 44.4974 39.8785 44.7254C39.8869 44.7925 39.8604 44.9096 39.7989 45.0768C39.726 45.2746 39.768 45.4906 39.7199 45.7033C39.717 45.7162 39.7114 45.7263 39.7033 45.7337C39.6989 45.7381 39.6939 45.7422 39.6884 45.7459C39.6788 45.7529 39.6733 45.7624 39.6718 45.7746C39.6475 46.0343 39.6547 46.2575 39.6033 46.5343C39.5798 46.6602 39.5623 46.8173 39.5509 47.0055C39.5483 47.0424 39.5293 47.1076 39.4939 47.2011C39.4696 47.2648 39.4555 47.3298 39.4514 47.3961C39.4319 47.7147 39.3827 48.0282 39.3039 48.3365C39.2615 48.5015 39.2337 48.6486 39.2205 48.7779C39.1956 49.0138 39.1868 49.2796 39.1089 49.5039C39.0636 49.6348 39.0166 49.7254 39.01 49.8707C39.0015 50.0692 38.9796 50.2661 38.9442 50.4613C38.9194 50.6011 38.8017 50.7381 38.7962 50.8724C38.7881 51.0735 38.7678 51.2731 38.7354 51.4713C38.7138 51.6044 38.6238 51.6928 38.6044 51.8166C38.5713 52.0298 38.5389 52.2433 38.5072 52.4569C38.4877 52.5906 38.452 52.7424 38.4 52.9122C38.3376 53.1138 38.2989 53.3072 38.2254 53.5122C38.1591 53.6978 38.1103 53.888 38.079 54.0829C38.0643 54.1753 38.0358 54.268 37.9934 54.3608C37.9426 54.4724 37.9133 54.5665 37.9056 54.6431C37.8901 54.7952 37.8348 54.9976 37.7398 55.2503C37.7221 55.2974 37.696 55.4018 37.6614 55.5635C37.6437 55.6472 37.6103 55.7488 37.5614 55.8685C37.5124 55.9893 37.4763 56.114 37.4531 56.2425C37.4094 56.4823 37.2956 56.6746 37.2343 56.9083C37.2063 57.0158 37.1684 57.1234 37.1205 57.2309C37.0282 57.4381 36.9945 57.6409 36.8917 57.8514C36.8044 58.0304 36.7752 58.2083 36.6779 58.3901C36.5917 58.5497 36.5685 58.7116 36.4774 58.8746C36.4033 59.0066 36.3602 59.1691 36.3022 59.289C36.0249 59.8635 35.7514 60.4459 35.4304 60.9923C35.2993 61.2162 35.166 61.4387 35.0304 61.6597C34.8774 61.9094 34.6713 62.1658 34.5249 62.3718C33.9315 63.2076 33.2332 63.8805 32.4299 64.3906C32.0398 64.6381 31.5875 64.826 31.073 64.9541C30.93 64.9895 30.7359 65.016 30.4906 65.0337C30.2265 65.0525 29.9614 65.0961 29.7061 65.1022C29.0777 65.1173 28.4483 65.1385 27.8177 65.1657C27.1172 65.1576 26.4149 65.153 25.7111 65.1519C25.5663 65.1516 25.5015 65.0742 25.5166 64.9199C25.524 64.8473 25.5277 64.7138 25.5277 64.5193C25.5284 53.0328 25.5289 41.5464 25.5293 30.0602C25.5566 29.4956 25.5558 28.9383 25.5271 28.3884C25.5265 28.3779 25.5239 28.3676 25.5193 28.3581C25.5148 28.3487 25.5084 28.3402 25.5005 28.3332C25.4927 28.3262 25.4835 28.3209 25.4735 28.3174C25.4636 28.314 25.4531 28.3126 25.4426 28.3133C24.8709 28.3494 24.2995 28.3564 23.7282 28.3343C23.2041 28.314 22.8363 28.3039 22.6249 28.3039C16.458 28.3039 12.0518 28.2961 9.4061 28.2807C9.0945 28.2785 8.82765 28.1138 8.54865 27.9934C8.41642 27.9359 8.30629 27.8829 8.21826 27.8343C7.18069 27.2582 6.28437 26.5615 5.52931 25.7442C5.2527 25.4448 5.05362 25.2315 4.93207 25.1044C4.8387 25.0061 4.79561 24.8923 4.71052 24.7961C4.35656 24.3969 4.07075 24.0146 3.85307 23.6492C3.71752 23.4216 3.60334 23.2328 3.51052 23.0829C3.1934 22.5718 2.95086 22.0619 2.67848 21.5442C2.51605 21.2359 2.41384 20.9216 2.2713 20.5856C2.23078 20.4902 2.18437 20.3676 2.13207 20.2177C2.09782 20.1205 2.02268 20.0111 1.98677 19.8884C1.91771 19.6525 1.80003 19.4442 1.75086 19.2088C1.73576 19.1374 1.7201 19.0663 1.70389 18.9956C1.66301 18.821 1.56854 18.6674 1.53152 18.4818C1.46633 18.158 1.32876 17.8829 1.27572 17.5536C1.25399 17.4188 1.22305 17.2866 1.1829 17.1569C1.09064 16.8602 1.06688 16.5448 0.988425 16.2591C0.908867 15.9711 0.85012 15.679 0.812182 15.3829C0.807026 15.3409 0.786952 15.2503 0.751961 15.1111C0.721022 14.9884 0.729309 14.8414 0.712182 14.737C0.690083 14.6033 0.659512 14.4718 0.62047 14.3426C0.615921 14.3278 0.614897 14.3121 0.61748 14.2969C0.620064 14.2817 0.626184 14.2672 0.635353 14.2547C0.644523 14.2422 0.656491 14.232 0.670307 14.2249C0.684123 14.2178 0.699406 14.214 0.714945 14.2138L3.74533 14.1774L53.7823 14.1685Z" fill="#F7FAFD"/>
        <path d="M22.858 41.6486C22.8304 41.7989 22.8188 41.9132 22.8232 41.9917C22.8376 42.2573 22.8361 42.5226 22.8188 42.7878C22.8122 42.8873 22.8525 43.0243 22.7829 43.1492C22.774 43.165 22.7696 43.1819 22.7696 43.2C22.7685 46.3425 22.7685 49.4849 22.7696 52.6271C22.7696 52.7637 22.7779 52.8992 22.7945 53.0337C22.8133 53.1862 22.8215 53.321 22.8193 53.4381C22.8145 53.749 22.8271 54.0582 22.8569 54.3657C22.882 54.488 22.8762 54.6083 22.8398 54.7265C22.8373 54.7351 22.8326 54.7429 22.8262 54.7491C22.8198 54.7553 22.8119 54.7597 22.8033 54.7619C22.6033 54.8127 22.3232 54.6867 22.1431 54.6039C21.6989 54.3989 21.2481 54.2116 20.8055 54.0033C19.2843 53.2891 17.8365 52.4486 16.4619 51.4818C13.7554 49.5786 11.458 47.2678 9.56961 44.5492C8.42891 42.9068 7.47956 41.1598 6.72155 39.3083C6.37827 38.4692 6.1639 37.9083 6.07845 37.6254C5.97348 37.2784 5.86482 36.9326 5.75248 36.5878C5.70829 36.4515 5.65654 36.2585 5.59724 36.0088C5.56666 35.8784 5.53131 35.7493 5.49116 35.6215C5.4 35.3287 5.3663 35.0315 5.28619 34.7359C5.18287 34.3574 5.15248 33.9829 5.06132 33.6055C5.00829 33.3853 4.97348 33.1908 4.9569 33.0221C4.92449 32.6987 4.89889 32.4681 4.88011 32.3304C4.85746 32.1646 4.79226 32.0061 4.78619 31.821C4.7663 31.2304 4.7 30.616 4.69337 30.0597C4.68563 29.3591 4.68158 28.6587 4.68121 27.9585C4.68121 27.7155 4.90884 27.7519 5.04033 27.8635C5.93591 28.6276 7.07348 29.0718 8.14696 29.5182C8.38048 29.6151 8.57808 29.69 8.73978 29.7431C8.9116 29.7994 9.2569 29.9574 9.51657 29.958C11.8702 29.9598 14.2236 29.9593 16.5768 29.9563C16.8066 29.956 16.9341 29.9587 16.9591 29.9646C17.1223 30.0015 17.2033 30.1245 17.2022 30.3337C17.1985 30.8346 17.2284 31.2399 17.2917 31.5497C17.3687 31.9254 17.4228 32.2175 17.4541 32.4259C17.4989 32.7226 17.6171 32.9922 17.668 33.2922C17.7099 33.5409 17.8227 33.732 17.8685 33.969C17.9177 34.2248 18.0331 34.437 18.105 34.6878C18.1657 34.9011 18.2773 35.1259 18.363 35.3293C19.3424 37.6659 20.74 39.6523 22.5558 41.2884C22.7064 41.4243 22.8072 41.5444 22.858 41.6486ZM10.9785 46.1856C11.079 46.3178 11.2158 46.4827 11.3889 46.6801C12.9186 48.4259 14.5785 49.9523 16.3685 51.2591C16.5346 51.3799 16.7446 51.5213 16.9983 51.6834C17.3558 51.9116 17.8149 52.242 18.2436 52.4878C18.4783 52.6223 18.6864 52.7442 18.868 52.8536C19.114 53.0013 19.3652 53.1394 19.6215 53.2679C20.0433 53.4794 20.4646 53.6913 20.8856 53.9039C21.107 54.0155 21.5501 54.205 22.2149 54.4724C22.358 54.5293 22.495 54.6464 22.6934 54.6282C22.7151 54.6259 22.7265 54.614 22.7276 54.5922C22.7669 53.8331 22.7293 52.8497 22.7287 52.3232C22.726 48.7994 22.7221 45.2762 22.7602 41.7525C22.7602 41.7359 22.7562 41.7204 22.7481 41.7061C22.6928 41.6083 22.6762 41.5387 22.5912 41.4635C21.5249 40.5173 20.5971 39.4499 19.8077 38.2613C19.6206 37.9792 19.4392 37.6932 19.2635 37.4033C19.1856 37.274 19.1149 37.1011 19.0182 36.958C18.932 36.8304 18.8956 36.6922 18.8122 36.5608C18.7691 36.493 18.7319 36.4164 18.7006 36.3309C18.6425 36.1729 18.5398 36.0707 18.4889 35.911C18.4599 35.8193 18.4223 35.7311 18.3762 35.6464C18.2779 35.4657 18.2425 35.2823 18.1442 35.1044C18.0486 34.9304 18.0282 34.7447 17.9392 34.558C17.8354 34.3403 17.7989 34.105 17.7144 33.8862C17.6287 33.6646 17.5912 33.4204 17.5227 33.2088C17.4689 33.042 17.4239 32.8727 17.3878 32.7011C17.3033 32.2989 17.1829 31.8878 17.1624 31.4541C17.1547 31.2939 17.1204 31.1619 17.0884 31.011C17.0348 30.7563 17.0624 30.4939 17.0591 30.2392C17.0587 30.1886 17.0383 30.1403 17.0025 30.1045C16.9666 30.0688 16.9181 30.0485 16.8674 30.048C14.3436 30.0326 11.8197 30.0322 9.29558 30.0469C9.11105 30.048 8.72099 29.8668 8.50773 29.8005C8.43738 29.7788 8.34033 29.7377 8.21657 29.6773C8.05525 29.5983 7.89282 29.5746 7.73204 29.4845C7.56132 29.3889 7.34917 29.332 7.19061 29.2552C7.01768 29.1713 6.8326 29.1199 6.67127 29.0337C6.28306 28.8256 5.90074 28.6072 5.52431 28.3784C5.30331 28.2442 5.1116 28.0718 4.90718 27.9088C4.89568 27.8996 4.88179 27.8937 4.86713 27.892C4.85246 27.8903 4.83761 27.8928 4.82428 27.8991C4.81095 27.9055 4.79968 27.9154 4.79177 27.9279C4.78386 27.9404 4.77962 27.9548 4.77956 27.9696C4.77624 28.7759 4.78066 29.5849 4.79282 30.3967C4.79889 30.7889 4.88066 31.2166 4.90055 31.6337C4.90644 31.7626 4.92596 31.9072 4.95911 32.0674C5.01492 32.3348 5.0011 32.5989 5.07458 32.8646C5.09742 32.9482 5.11731 33.044 5.13425 33.1519C5.16593 33.3545 5.1976 33.5569 5.22928 33.7591C5.25396 33.9178 5.29576 34.1186 5.35469 34.3613C5.42707 34.6574 5.47072 34.9458 5.55359 35.2497C5.63757 35.5585 5.67182 35.8591 5.77458 36.1685C5.8558 36.4138 5.89116 36.6453 5.99724 36.9016C6.08895 37.1237 6.11326 37.3663 6.20608 37.5956C6.29061 37.8061 6.34364 38.0243 6.44309 38.2293C6.51436 38.3762 6.53204 38.5409 6.60221 38.69C6.66261 38.819 6.70442 38.9201 6.72762 38.9934C6.76151 39.0991 6.80129 39.2024 6.84696 39.3033C6.91473 39.4521 6.9593 39.5528 6.98066 39.6055C7.2442 40.2613 7.57569 40.9 7.88784 41.5342C8.05175 41.8683 8.40994 42.4911 8.96243 43.4027C9.2523 43.8816 9.78177 44.6282 10.5508 45.6425C10.6204 45.7346 10.6921 45.825 10.7657 45.9138C10.8147 45.9731 10.8856 46.0637 10.9785 46.1856Z" fill="#F7FAFD"/>
        <path d="M10.7658 45.9138C10.6921 45.825 10.6205 45.7346 10.5508 45.6425C9.78178 44.6281 9.25231 43.8815 8.96244 43.4027C8.40996 42.4911 8.05176 41.8683 7.88786 41.5342C7.5757 40.9 7.24421 40.2613 6.98067 39.6055C6.95931 39.5528 6.91474 39.4521 6.84697 39.3033C6.8013 39.2024 6.76152 39.099 6.72764 38.9933C6.70443 38.92 6.66263 38.8189 6.60222 38.69C6.53206 38.5408 6.51438 38.3762 6.44311 38.2292C6.34366 38.0243 6.29062 37.806 6.20609 37.5955C6.11327 37.3663 6.08896 37.1237 5.99725 36.9016C5.89117 36.6453 5.85581 36.4138 5.7746 36.1685C5.67183 35.8591 5.63758 35.5585 5.5536 35.2497C5.47073 34.9458 5.42708 34.6574 5.35471 34.3613C5.29578 34.1186 5.25397 33.9178 5.22929 33.7591C5.19762 33.5569 5.16594 33.3545 5.13426 33.1519C5.11732 33.044 5.09743 32.9482 5.0746 32.8646C5.00112 32.5989 5.01493 32.3348 4.95913 32.0674C4.92598 31.9071 4.90646 31.7626 4.90056 31.6337C4.88067 31.2165 4.79891 30.7889 4.79283 30.3966C4.78067 29.5849 4.77625 28.7758 4.77957 27.9696C4.77964 27.9548 4.78387 27.9404 4.79178 27.9279C4.79969 27.9154 4.81096 27.9054 4.82429 27.8991C4.83762 27.8928 4.85247 27.8903 4.86714 27.892C4.88181 27.8937 4.89569 27.8995 4.90719 27.9088C5.11161 28.0718 5.30333 28.2442 5.52432 28.3784C5.90075 28.6071 6.28307 28.8256 6.67128 29.0337C6.83261 29.1199 7.01769 29.1712 7.19062 29.2552C7.34918 29.332 7.56134 29.3889 7.73206 29.4845C7.89283 29.5745 8.05526 29.5983 8.21659 29.6773C8.34034 29.7377 8.4374 29.7788 8.50775 29.8005C8.72101 29.8668 9.11106 30.048 9.29559 30.0469C11.8197 30.0322 14.3437 30.0326 16.8674 30.048C16.9181 30.0485 16.9666 30.0687 17.0025 30.1045C17.0384 30.1403 17.0587 30.1886 17.0591 30.2392C17.0624 30.4939 17.0348 30.7563 17.0884 31.011C17.1205 31.1618 17.1547 31.2939 17.1624 31.4541C17.1829 31.8878 17.3033 32.2989 17.3879 32.7011C17.424 32.8727 17.4689 33.042 17.5227 33.2088C17.5912 33.4204 17.6287 33.6646 17.7144 33.8861C17.7989 34.1049 17.8354 34.3403 17.9392 34.558C18.0282 34.7447 18.0486 34.9303 18.1442 35.1044C18.2426 35.2823 18.2779 35.4657 18.3763 35.6464C18.4223 35.7311 18.4599 35.8193 18.489 35.911C18.5398 36.0707 18.6426 36.1729 18.7006 36.3309C18.7319 36.4164 18.7691 36.493 18.8122 36.5607C18.8956 36.6922 18.9321 36.8303 19.0182 36.958C19.1149 37.1011 19.1856 37.274 19.2635 37.4033C19.4392 37.6931 19.6206 37.9791 19.8077 38.2613C20.5971 39.4499 21.5249 40.5173 22.5912 41.4635C22.6763 41.5386 22.6928 41.6082 22.7481 41.706C22.7562 41.7204 22.7602 41.7359 22.7602 41.7524C22.7221 45.2762 22.726 48.7994 22.7287 52.3232C22.7293 52.8497 22.7669 53.8331 22.7276 54.5922C22.7265 54.614 22.7151 54.6259 22.6934 54.6281C22.495 54.6464 22.358 54.5292 22.2149 54.4723C21.5501 54.2049 21.107 54.0154 20.8856 53.9038C20.4647 53.6913 20.0433 53.4793 19.6216 53.2679C19.3652 53.1394 19.114 53.0012 18.868 52.8535C18.6864 52.7442 18.4783 52.6222 18.2437 52.4878C17.8149 52.2419 17.3558 51.9116 16.9984 51.6834C16.7446 51.5213 16.5346 51.3799 16.3685 51.2591C14.5785 49.9523 12.9186 48.4259 11.389 46.6801C11.2159 46.4826 11.079 46.3178 10.9785 46.1856C10.8856 46.0637 10.8147 45.9731 10.7658 45.9138Z" fill="#F7FAFD"/>
        <path d="M52.8867 29.953C55.7689 29.9582 58.651 29.9595 61.5332 29.9569C62.1619 29.9564 61.7884 30.505 61.7807 30.8359C61.7692 31.3136 61.7433 31.7908 61.7028 32.2674C61.6834 32.5006 61.5934 32.7227 61.5691 32.9348C61.5495 33.1105 61.5291 33.2864 61.5077 33.4624C61.4923 33.5891 61.4575 33.7571 61.4033 33.9663C61.3265 34.2641 61.3149 34.5735 61.2282 34.8613C61.1796 35.0241 61.146 35.1519 61.1276 35.2448C61.0219 35.7785 60.8788 36.3017 60.6983 36.8144C60.6525 36.9448 60.6392 37.1028 60.5785 37.2486C60.4923 37.458 60.4564 37.6862 60.3674 37.8829C60.3149 38 60.263 38.0878 60.2348 38.2199C60.1851 38.4558 60.0685 38.6619 59.995 38.8878C59.9459 39.0381 59.8624 39.1917 59.8127 39.3166C59.7184 39.5519 59.6192 39.7849 59.5149 40.0155C57.4457 44.5941 54.4011 48.3407 50.3812 51.2553C50.1761 51.4044 49.6886 51.7381 48.9188 52.2564C48.756 52.3661 48.5779 52.4746 48.3845 52.5818C48.2018 52.6827 48.0203 52.7855 47.8398 52.8901C45.9831 53.9652 44.0315 54.8228 41.9851 55.463C41.9674 55.4685 41.8217 55.5066 41.5481 55.5774C41.3481 55.6293 41.1646 55.7138 40.9713 55.7586C40.7473 55.8101 40.5273 55.8748 40.3111 55.9525C40.2934 55.9587 40.2755 55.9587 40.2575 55.9525C40.037 55.8729 40.1254 55.6525 40.2166 55.5022C40.3116 55.347 40.3359 55.1503 40.3989 54.9785C40.4845 54.7453 40.5249 54.5039 40.6149 54.2691C40.7298 53.9718 40.742 53.6912 40.8503 53.4044C40.9321 53.1873 40.9641 52.9332 41.016 52.7464C41.1486 52.2698 41.263 51.7893 41.3591 51.305C41.3897 51.1517 41.4486 50.8748 41.5359 50.474C41.6204 50.0878 41.6541 49.6884 41.747 49.3077C41.8658 48.8221 41.863 48.3354 41.9867 47.8481C42.0503 47.5983 42.0337 47.3541 42.0851 47.0978C42.1354 46.8464 42.0845 46.6376 42.1751 46.3834C42.2186 46.2619 42.239 46.1654 42.2365 46.0939C42.2221 45.6845 42.3066 45.279 42.3061 44.8967C42.305 44.4066 42.226 43.9354 42.7403 43.6525C45.9407 41.8926 48.3409 39.3739 49.9409 36.0961C50.1072 35.7547 50.2564 35.3779 50.4017 35.0155C50.5472 34.6538 50.6731 34.286 50.7796 33.9122C50.826 33.7514 50.963 33.3939 51.0088 33.1221C51.0586 32.8304 51.1624 32.568 51.2061 32.2785C51.244 32.028 51.263 31.902 51.263 31.9006C51.3309 31.5249 51.4232 31.1381 51.4381 30.7569C51.4459 30.5779 51.4398 30.3127 51.4652 30.1912C51.5199 29.9337 51.7514 29.9591 52 29.9564C52.2958 29.9534 52.5913 29.9523 52.8867 29.953ZM61.3514 33.3514C61.4315 33.2254 61.4276 33.1072 61.4486 32.968C61.4895 32.6965 61.5193 32.4241 61.5381 32.1508C61.547 32.0256 61.5702 31.8755 61.6077 31.7006C61.6549 31.4825 61.6781 31.2615 61.6774 31.0376C61.6768 30.7276 61.71 30.4912 61.7635 30.2204C61.7679 30.1991 61.7674 30.177 61.7621 30.1558C61.7569 30.1346 61.747 30.1149 61.7331 30.098C61.7193 30.0811 61.7018 30.0674 61.6821 30.058C61.6623 30.0486 61.6407 30.0437 61.6188 30.0436C58.3392 30.033 55.0925 30.0335 51.8785 30.0453C51.663 30.0464 51.595 30.0956 51.5829 30.3204C51.542 31.0862 51.4996 31.5696 51.4558 31.7707C51.3553 32.2332 51.2746 32.6995 51.1497 33.1564C51.1188 33.2683 51.0836 33.412 51.0442 33.5873C51.0088 33.7431 50.9039 33.9232 50.8586 34.1243C50.8276 34.2617 50.782 34.3941 50.7216 34.5215C50.642 34.689 50.6254 34.8641 50.5403 35.0332C50.432 35.2481 50.3862 35.4519 50.2707 35.6536C50.2088 35.7619 50.1906 35.8812 50.137 35.9818C49.9298 36.3713 49.7243 36.8083 49.5232 37.158C47.9122 39.9554 45.6936 42.147 42.8674 43.7326C42.6768 43.8392 42.521 43.8359 42.5072 44.1188C42.4917 44.4385 42.4832 44.7588 42.4818 45.0796C42.4807 45.2812 42.363 45.4326 42.353 45.6376C42.3306 46.0939 42.2991 46.5497 42.2586 47.005C42.2431 47.1779 42.158 47.3011 42.1508 47.4845C42.1446 47.6433 42.13 47.8013 42.1072 47.9586C42.0801 48.1409 42.0851 48.3669 42.0326 48.568C41.9781 48.7768 41.9471 48.9068 41.9398 48.958C41.9162 49.1267 41.8958 49.296 41.8785 49.4657C41.8641 49.6061 41.8339 49.7634 41.7878 49.9376C41.7289 50.1608 41.6884 50.3877 41.6663 50.6182C41.6354 50.9359 41.5216 51.2177 41.463 51.5619C41.4339 51.735 41.382 51.9333 41.3072 52.1569C41.2387 52.3624 41.2144 52.647 41.1348 52.8983C41.0748 53.0877 41.026 53.2799 40.9884 53.4751C40.9442 53.7022 40.8243 53.8934 40.7983 54.1414C40.7823 54.295 40.7298 54.3961 40.674 54.5287C40.5851 54.7398 40.595 54.984 40.4978 55.1823C40.4123 55.3565 40.3413 55.5385 40.2845 55.7282C40.2835 55.7319 40.2833 55.7357 40.284 55.7395C40.2847 55.7433 40.2863 55.7468 40.2886 55.7498C40.291 55.7528 40.294 55.7551 40.2974 55.7566C40.3008 55.7582 40.3046 55.7588 40.3083 55.7586C40.4457 55.7468 40.5812 55.721 40.7149 55.6812C41.0983 55.5678 41.4827 55.4575 41.868 55.3503C42.0871 55.2891 42.2939 55.2243 42.4884 55.1558C42.6928 55.0836 42.8974 55.011 43.1022 54.9381C43.2343 54.8912 43.421 54.8442 43.5757 54.7785C43.7772 54.6934 43.8915 54.6457 43.9188 54.6354C45.126 54.1901 46.2983 53.6221 47.4171 52.989C47.5254 52.9282 47.6696 52.8768 47.7879 52.8006C48.1006 52.6006 48.4486 52.4111 48.6901 52.2564C49.9902 51.4221 51.1488 50.5689 52.1657 49.6967C53.0074 48.9744 53.8678 48.1297 54.747 47.1624C54.9111 46.9818 55.0923 46.7481 55.2735 46.5475C55.423 46.3821 55.5527 46.2269 55.6624 46.0818C55.9437 45.7099 56.2641 45.347 56.5166 44.9856C57.0046 44.2873 57.4716 43.5753 57.9177 42.8497C58.0131 42.695 58.1215 42.5042 58.2431 42.2773C58.4552 41.8818 58.6597 41.5381 58.868 41.0873C58.9171 40.9801 59.0011 40.8652 59.0486 40.737C59.1166 40.5536 59.2133 40.4171 59.2751 40.2409C59.3403 40.0575 59.4486 39.9155 59.5083 39.7276C59.5785 39.5083 59.7011 39.3365 59.7508 39.1066C59.7735 39.0044 59.863 38.9348 59.8928 38.8171C59.933 38.6602 59.9882 38.509 60.0586 38.3635C60.1182 38.2403 60.1359 38.1271 60.1718 38C60.1862 37.9492 60.2243 37.8623 60.2862 37.7392C60.3448 37.6236 60.3786 37.4983 60.3879 37.3635C60.3934 37.2858 60.4273 37.1897 60.4895 37.0751C60.5414 36.9794 60.5785 36.8446 60.6006 36.6707C60.6131 36.572 60.6385 36.482 60.6768 36.4006C60.77 36.2024 60.8168 36.0681 60.8171 35.9978C60.8175 35.8111 60.8506 35.6317 60.9166 35.4597C60.9409 35.396 60.9632 35.3315 60.9834 35.2663C61.0004 35.2118 61.0111 35.1449 61.0155 35.0657C61.0265 34.8676 61.0661 34.6761 61.1343 34.4912C61.1943 34.3291 61.23 34.2059 61.2414 34.1215C61.2674 33.9365 61.2553 33.7414 61.3011 33.5608C61.3147 33.5074 61.326 33.4523 61.3348 33.3956C61.3374 33.3797 61.3429 33.365 61.3514 33.3514Z" fill="#F7FAFD"/>
        <path d="M61.3348 33.3956C61.326 33.4523 61.3148 33.5073 61.3011 33.5608C61.2553 33.7414 61.2674 33.9364 61.2415 34.1215C61.23 34.2059 61.1943 34.3291 61.1343 34.4911C61.0661 34.676 61.0265 34.8676 61.0155 35.0657C61.0111 35.1449 61.0004 35.2118 60.9834 35.2663C60.9632 35.3315 60.9409 35.3959 60.9166 35.4597C60.8507 35.6317 60.8175 35.811 60.8171 35.9978C60.8168 36.0681 60.77 36.2024 60.6768 36.4005C60.6385 36.4819 60.6131 36.572 60.6006 36.6707C60.5785 36.8445 60.5415 36.9794 60.4895 37.0751C60.4273 37.1897 60.3934 37.2858 60.3879 37.3635C60.3787 37.4983 60.3448 37.6236 60.2862 37.7392C60.2243 37.8622 60.1862 37.9492 60.1718 38C60.1359 38.1271 60.1183 38.2403 60.0586 38.3635C59.9882 38.509 59.933 38.6602 59.8928 38.8171C59.863 38.9348 59.7735 39.0044 59.7508 39.1066C59.7011 39.3364 59.5785 39.5083 59.5083 39.7276C59.4486 39.9155 59.3403 40.0574 59.2752 40.2409C59.2133 40.4171 59.1166 40.5536 59.0486 40.737C59.0011 40.8652 58.9171 40.9801 58.868 41.0873C58.6597 41.5381 58.4553 41.8817 58.2431 42.2773C58.1216 42.5042 58.0131 42.695 57.9177 42.8497C57.4717 43.5753 57.0046 44.2873 56.5166 44.9856C56.2641 45.3469 55.9437 45.7099 55.6624 46.0818C55.5527 46.2269 55.423 46.3821 55.2735 46.5475C55.0923 46.748 54.9111 46.9818 54.747 47.1624C53.8678 48.1296 53.0074 48.9744 52.1658 49.6967C51.1488 50.5689 49.9903 51.4221 48.6901 52.2563C48.4486 52.411 48.1006 52.6005 47.7879 52.8005C47.6696 52.8768 47.5254 52.9282 47.4171 52.9889C46.2984 53.6221 45.126 54.19 43.9188 54.6353C43.8915 54.6457 43.7772 54.6933 43.5757 54.7784C43.421 54.8442 43.2343 54.8911 43.1022 54.9381C42.8974 55.011 42.6928 55.0836 42.4884 55.1558C42.2939 55.2243 42.0871 55.2891 41.868 55.3503C41.4827 55.4574 41.0984 55.5678 40.7149 55.6812C40.5812 55.721 40.4457 55.7468 40.3083 55.7585C40.3046 55.7588 40.3008 55.7582 40.2974 55.7566C40.294 55.7551 40.291 55.7527 40.2886 55.7497C40.2863 55.7468 40.2847 55.7432 40.284 55.7395C40.2833 55.7357 40.2835 55.7318 40.2845 55.7282C40.3413 55.5385 40.4124 55.3565 40.4978 55.1823C40.595 54.984 40.5851 54.7398 40.674 54.5287C40.7298 54.3961 40.7823 54.295 40.7984 54.1414C40.8243 53.8934 40.9442 53.7022 40.9884 53.4751C41.026 53.2799 41.0748 53.0876 41.1348 52.8983C41.2144 52.6469 41.2387 52.3624 41.3072 52.1569C41.382 51.9333 41.4339 51.735 41.463 51.5619C41.5216 51.2177 41.6354 50.9359 41.6663 50.6182C41.6884 50.3876 41.7289 50.1608 41.7879 49.9375C41.8339 49.7633 41.8641 49.6061 41.8785 49.4657C41.8958 49.2959 41.9162 49.1267 41.9398 48.958C41.9472 48.9068 41.9781 48.7768 42.0326 48.5679C42.0851 48.3668 42.0801 48.1409 42.1072 47.9585C42.13 47.8013 42.1446 47.6433 42.1508 47.4845C42.158 47.3011 42.2431 47.1779 42.2586 47.005C42.2991 46.5497 42.3306 46.0939 42.3531 45.6375C42.363 45.4326 42.4807 45.2812 42.4818 45.0795C42.4833 44.7587 42.4917 44.4385 42.5072 44.1188C42.521 43.8359 42.6768 43.8392 42.8674 43.7326C45.6936 42.1469 47.9122 39.9554 49.5232 37.158C49.7243 36.8083 49.9298 36.3713 50.137 35.9817C50.1906 35.8812 50.2089 35.7619 50.2707 35.6536C50.3862 35.4519 50.4321 35.248 50.5403 35.0331C50.6254 34.8641 50.642 34.6889 50.7216 34.5215C50.782 34.3941 50.8276 34.2617 50.8586 34.1243C50.9039 33.9232 51.0089 33.7431 51.0442 33.5873C51.0836 33.412 51.1188 33.2683 51.1497 33.1563C51.2746 32.6994 51.3553 32.2331 51.4558 31.7707C51.4996 31.5696 51.542 31.0862 51.5829 30.3204C51.595 30.0956 51.663 30.0464 51.8785 30.0453C55.0925 30.0335 58.3392 30.0329 61.6188 30.0436C61.6407 30.0437 61.6623 30.0486 61.6821 30.058C61.7018 30.0674 61.7193 30.081 61.7331 30.0979C61.747 30.1149 61.7569 30.1346 61.7621 30.1558C61.7674 30.177 61.7679 30.199 61.7636 30.2204C61.71 30.4911 61.6768 30.7276 61.6774 31.0375C61.6781 31.2615 61.6549 31.4825 61.6077 31.7005C61.5702 31.8755 61.547 32.0256 61.5381 32.1508C61.5194 32.4241 61.4895 32.6965 61.4486 32.9679C61.4276 33.1072 61.4315 33.2254 61.3514 33.3514C61.3429 33.365 61.3374 33.3797 61.3348 33.3956Z" fill="#F7FAFD"/>
        <path d="M22.858 41.6486L22.8569 54.3657C22.8271 54.0582 22.8146 53.749 22.8194 53.4381C22.8216 53.321 22.8133 53.1862 22.7945 53.0337C22.7779 52.8993 22.7696 52.7637 22.7696 52.6271C22.7685 49.4849 22.7685 46.3425 22.7696 43.2C22.7696 43.182 22.774 43.165 22.7829 43.1492C22.8525 43.0243 22.8122 42.8873 22.8188 42.7878C22.8361 42.5227 22.8376 42.2573 22.8232 41.9917C22.8188 41.9133 22.8304 41.7989 22.858 41.6486Z" fill="#F7FAFD"/>
        <path d="M57.9663 52.3415C57.7707 52.2623 57.5529 52.1899 57.3127 52.1243C56.6934 51.9558 56.1111 51.7392 55.4928 51.5917C55.4346 51.5781 55.3103 51.5451 55.1199 51.4928C54.8519 51.4188 54.5663 51.389 54.3099 51.3199C54.1604 51.2801 54.0166 51.2483 53.8785 51.2243C53.8491 51.2193 53.8219 51.2057 53.8003 51.1853C53.7787 51.1649 53.7636 51.1385 53.7569 51.1095C53.7502 51.0805 53.7523 51.0502 53.7628 51.0223C53.7733 50.9945 53.7918 50.9704 53.816 50.9531C54.116 50.7376 54.379 50.5221 54.658 50.2564C55.3711 49.5761 55.9578 48.9796 56.4182 48.4669C56.9578 47.8665 57.507 47.1488 58.0657 46.3138C58.1171 46.2376 58.2354 46.2221 58.3265 46.2514C59.9928 46.784 61.5595 47.4532 63.0265 48.2591C63.9422 48.7623 64.8339 49.3718 65.7017 50.0879C67.1376 51.273 68.2917 52.7542 68.9823 54.4801C69.042 54.6297 69.1057 54.8243 69.1735 55.0641C69.2497 55.3321 69.3425 55.5812 69.379 55.8553C69.4298 56.2409 69.4737 56.6275 69.5105 57.0149C69.5186 57.0974 69.5109 57.1914 69.4873 57.2967C69.4195 57.5998 69.4372 57.8893 69.5403 58.1652C69.5996 58.324 69.5781 58.4497 69.4757 58.5426C69.4686 58.5492 69.4599 58.554 69.4503 58.5566C69.4408 58.5592 69.4308 58.5595 69.421 58.5575C69.3179 58.5343 69.239 58.5006 69.1845 58.4564C68.526 57.9205 67.8536 57.5078 67.2033 57.0752C65.132 55.6962 62.953 54.4691 60.6851 53.4437C60.4037 53.3166 60.0639 53.175 59.6657 53.0188C59.0978 52.7963 58.5313 52.5706 57.9663 52.3415ZM57.0934 51.9232C57.2917 51.9928 57.516 52.005 57.7 52.1033C57.8994 52.2094 58.1271 52.2409 58.3337 52.3431C58.4934 52.4227 58.6508 52.4558 58.8105 52.5265C59.2558 52.7232 59.7077 52.8923 60.1619 53.068C60.3096 53.1251 60.5781 53.2448 60.9674 53.4271C62.9807 54.3685 64.8403 55.3908 66.5464 56.4939C66.6597 56.5674 66.7862 56.6138 66.8912 56.6917C67.379 57.0525 67.9022 57.3575 68.3906 57.7089C68.5696 57.8374 68.7501 57.9637 68.932 58.0879C69.084 58.1906 69.1635 58.3514 69.3669 58.3807C69.3771 58.3821 69.3875 58.3809 69.397 58.377C69.4066 58.3731 69.4149 58.3668 69.4213 58.3587C69.4276 58.3506 69.4317 58.3409 69.4331 58.3307C69.4345 58.3205 69.4332 58.3101 69.4293 58.3006C69.3376 58.0801 69.3204 57.8989 69.3315 57.6387C69.3451 57.3039 69.3503 56.9693 69.347 56.6348C69.3451 56.4809 69.325 56.3113 69.2867 56.126C69.1674 55.5492 69.0691 55.0177 68.8436 54.4343C68.7928 54.3017 68.6895 54.1265 68.6414 53.9531C68.6188 53.8713 68.5724 53.8205 68.5276 53.7525C68.458 53.6459 68.4409 53.5144 68.3641 53.4017C68.2077 53.173 68.0862 52.9078 67.9453 52.7188C67.8309 52.5652 67.7309 52.395 67.637 52.2729C66.742 51.1183 65.6897 50.1293 64.4801 49.3061C63.4414 48.5993 62.3943 48.0168 61.3387 47.5586C61.1678 47.4846 61.0337 47.4225 60.9365 47.3724C60.8632 47.3348 60.7904 47.3054 60.7182 47.284C60.5149 47.2232 60.368 47.116 60.1751 47.0553C60.0632 47.0195 59.9587 46.9787 59.8619 46.9326C59.6779 46.8448 59.4856 46.8067 59.2972 46.7232C59.095 46.6343 58.895 46.616 58.6945 46.5111C58.5446 46.433 58.3816 46.3886 58.2055 46.3779C58.186 46.3768 58.1687 46.3825 58.1536 46.3951C58.0414 46.4873 57.968 46.6801 57.9133 46.7569C56.9088 48.1588 55.7626 49.4335 54.4746 50.5812C54.3055 50.7322 54.1269 50.8698 53.9387 50.9939C53.9298 50.9999 53.9222 51.0076 53.9164 51.0165C53.9106 51.0254 53.9067 51.0354 53.905 51.0459C53.8943 51.1096 53.9276 51.1413 54.005 51.1409C54.2602 51.1409 54.5059 51.1847 54.742 51.2724C54.9188 51.3381 55.0646 51.3536 55.2403 51.3829C55.3431 51.3998 55.4665 51.4322 55.6105 51.4801C55.8613 51.563 56.105 51.589 56.3541 51.6895C56.4654 51.7345 56.579 51.7718 56.695 51.8017C56.8291 51.8363 56.9619 51.8768 57.0934 51.9232Z" fill="#F7FAFD"/>
        <path d="M56.6951 51.8017C56.5791 51.7719 56.4654 51.7345 56.3542 51.6895C56.105 51.589 55.8614 51.563 55.6105 51.4802C55.4665 51.4323 55.3431 51.3999 55.2404 51.3829C55.0647 51.3536 54.9188 51.3382 54.742 51.2724C54.5059 51.1848 54.2603 51.1409 54.005 51.1409C53.9277 51.1413 53.8943 51.1096 53.905 51.0459C53.9068 51.0354 53.9106 51.0254 53.9164 51.0165C53.9222 51.0076 53.9298 50.9999 53.9387 50.994C54.1269 50.8698 54.3056 50.7323 54.4746 50.5813C55.7627 49.4336 56.9089 48.1588 57.9133 46.7569C57.968 46.6802 58.0415 46.4873 58.1536 46.3951C58.1687 46.3825 58.186 46.3768 58.2056 46.3779C58.3816 46.3886 58.5446 46.433 58.6945 46.5111C58.8951 46.6161 59.0951 46.6343 59.2973 46.7232C59.4857 46.8067 59.6779 46.8448 59.8619 46.9326C59.9588 46.9787 60.0632 47.0196 60.1752 47.0553C60.368 47.1161 60.515 47.2232 60.7183 47.284C60.7905 47.3054 60.8632 47.3348 60.9365 47.3724C61.0337 47.4225 61.1678 47.4846 61.3387 47.5586C62.3943 48.0168 63.4415 48.5993 64.4802 49.3061C65.6897 50.1293 66.742 51.1183 67.6371 52.273C67.731 52.3951 67.831 52.5652 67.9454 52.7188C68.0862 52.9078 68.2078 53.173 68.3641 53.4017C68.4409 53.5144 68.4581 53.6459 68.5277 53.7525C68.5724 53.8205 68.6188 53.8713 68.6415 53.9531C68.6895 54.1266 68.7929 54.3017 68.8437 54.4343C69.0691 55.0177 69.1674 55.5492 69.2868 56.126C69.3251 56.3113 69.3452 56.4809 69.347 56.6348C69.3503 56.9693 69.3452 57.3039 69.3315 57.6387C69.3205 57.8989 69.3376 58.0801 69.4293 58.3006C69.4332 58.3101 69.4345 58.3205 69.4331 58.3307C69.4317 58.3409 69.4276 58.3506 69.4213 58.3587C69.415 58.3668 69.4066 58.3732 69.397 58.377C69.3875 58.3809 69.3771 58.3821 69.3669 58.3807C69.1636 58.3514 69.084 58.1906 68.9321 58.0879C68.7501 57.9638 68.5697 57.8374 68.3907 57.7089C67.9023 57.3575 67.379 57.0525 66.8912 56.6917C66.7862 56.6138 66.6597 56.5674 66.5465 56.494C64.8404 55.3908 62.9807 54.3685 60.9674 53.4271C60.5781 53.2448 60.3096 53.1251 60.1619 53.068C59.7078 52.8923 59.2558 52.7232 58.8105 52.5266C58.6509 52.4558 58.4934 52.4227 58.3337 52.3431C58.1271 52.2409 57.8995 52.2094 57.7 52.1034C57.5161 52.005 57.2918 51.9929 57.0934 51.9232C56.9619 51.8768 56.8291 51.8363 56.6951 51.8017Z" fill="#F7FAFD"/>
    </g>
    <defs>
        <clipPath id="clip0_1_87">
            <rect width="70" height="65" fill="white"/>
        </clipPath>
    </defs>
</svg>
