<svg width="1440" height="222" viewBox="0 0 1440 222" fill="none" xmlns="http://www.w3.org/2000/svg">
<path d="M0 106L26.72 123.3C53.28 140.7 106.72 175.3 160 184.2C213.28 193 266.72 176 320 153.8C373.28 131.7 426.72 104.3 480 104.5C533.28 104.7 586.72 132.3 640 139.7C693.28 147 746.72 134 800 139.3C853.28 144.7 906.72 168.3 960 165.5C1013.28 162.7 1066.72 133.3 1120 131.3C1173.28 129.3 1226.72 154.7 1280 174.3C1333.28 194 1386.72 208 1413.28 215L1440 222V0H1413.28C1386.72 0 1333.28 0 1280 0C1226.72 0 1173.28 0 1120 0C1066.72 0 1013.28 0 960 0C906.72 0 853.28 0 800 0C746.72 0 693.28 0 640 0C586.72 0 533.28 0 480 0C426.72 0 373.28 0 320 0C266.72 0 213.28 0 160 0C106.72 0 53.28 0 26.72 0H0V106Z" fill="#00AEFF"/>
</svg>
