<svg width="80" height="64" viewBox="0 0 80 64" fill="none" xmlns="http://www.w3.org/2000/svg">
    <g clip-path="url(#clip0_17_91)">
        <path d="M22.5513 25.3763C22.4613 28.2075 23.8763 29.4613 23.9113 30.2575C23.8946 30.4196 23.8394 30.5753 23.7502 30.7117C23.6611 30.848 23.5405 30.961 23.3988 31.0413L21.7988 32.1613C21.5917 32.3064 21.3476 32.3897 21.095 32.4013C21.0413 32.3988 20.0713 32.63 18.535 29.2C17.5977 30.37 16.4052 31.31 15.0487 31.948C13.6922 32.5861 12.2077 32.9053 10.7088 32.8813C8.67376 32.9925 3.15876 31.7263 3.44251 25.855C3.24376 21.07 7.70001 18.0975 12.3088 18.3488C13.1963 18.3513 15.0088 18.395 18.1825 19.1325V17.18C18.5188 13.8725 16.345 11.3063 12.5813 11.6913C12.2813 11.6925 10.1563 11.6288 6.85126 12.955C5.93126 13.3775 5.81376 13.3075 5.50751 13.3075C4.58126 13.3075 4.96251 10.6225 5.14001 10.2825C5.79126 9.48253 9.62251 7.98878 13.3825 8.01003C15.8966 7.78769 18.3972 8.56359 20.3438 10.17C21.135 11.0551 21.7387 12.0914 22.1184 13.2164C22.498 14.3413 22.6457 15.5315 22.5525 16.715L22.5513 25.3763ZM11.7488 29.425C15.8025 29.3663 17.5188 26.9288 17.91 25.6163C18.2175 24.36 18.1663 23.565 18.1663 22.1913C16.9575 21.9013 15.2175 21.585 13.2213 21.5825C11.3275 21.44 7.86876 22.2863 8.00376 25.615C7.84876 27.7138 9.39376 29.54 11.7488 29.425ZM33.1138 32.3063C32.1313 32.3963 31.6738 31.6988 31.5288 31.01L25.3038 10.4288C25.1825 10.0813 25.1025 9.72253 25.0638 9.35628C25.0408 9.20529 25.0787 9.05135 25.1692 8.9283C25.2597 8.80525 25.3953 8.72314 25.5463 8.70003C25.5763 8.69503 25.28 8.70003 28.3275 8.70003C29.425 8.59003 29.7825 9.45378 29.8963 9.99628L34.3613 27.6L38.5063 9.99628C38.5725 9.59378 38.8738 8.61253 40.1063 8.71628H42.2513C42.5225 8.69378 43.64 8.65378 43.8363 10.0125L48.0138 27.8413L52.6225 10.0125C52.6825 9.74003 52.9625 8.59128 54.2075 8.71628H56.6725C56.7788 8.70003 57.4413 8.61503 57.3288 9.78878C57.275 10.02 57.755 8.45628 50.735 31.0263C50.5913 31.715 50.1325 32.4125 49.15 32.3225H46.8138C45.4463 32.4663 45.25 31.115 45.2288 30.9788L41.0838 13.8375L36.9863 30.9613C36.9663 31.0975 36.77 32.4488 35.4013 32.305H33.1138V32.3063ZM67.2988 33.01C66.5638 33.0113 63.0588 32.9725 60.1288 31.4738C59.8369 31.3502 59.5883 31.1427 59.4145 30.8777C59.2407 30.6127 59.1495 30.302 59.1525 29.985V28.6413C59.1525 27.585 59.9275 27.7788 60.2563 27.905C61.5113 28.4125 62.3163 28.7975 63.8575 29.105C68.4388 30.0463 70.4538 28.8175 70.9475 28.545C72.5913 27.5688 72.7213 25.335 71.6038 24.1763C70.2938 23.0775 69.6688 23.0363 64.9625 21.5513C64.3825 21.39 59.5 19.85 59.4888 15.0063C59.4125 11.4763 62.62 7.98378 68.1788 8.01253C69.7625 8.01128 73.9825 8.52878 75.125 9.96503C75.2938 10.2263 75.3775 10.5338 75.365 10.845V12.1088C75.365 12.6638 75.1625 12.9413 74.7563 12.9413C73.7925 12.8338 72.0825 11.545 68.6113 11.5975C67.75 11.5525 63.625 11.7113 63.81 14.7188C63.7563 17.0888 67.1363 17.9775 67.5225 18.08C72.08 19.4513 73.6038 19.6788 75.4125 21.7775C77.555 24.5588 76.4 27.815 75.9563 28.7075C73.5713 33.3938 67.4038 33.0125 67.2988 33.01ZM72.3238 46.1175C63.57 52.5825 50.8625 56.0238 40.0125 56.0238C25.3726 56.1203 11.226 50.7372 0.353759 40.9325C-0.462491 40.1963 0.257509 39.1875 1.25001 39.7488C13.3106 46.6477 26.9657 50.2727 40.86 50.2638C51.2359 50.2081 61.4986 48.1033 71.0588 44.07C72.5313 43.445 73.78 45.045 72.3238 46.1175ZM75.9725 41.9563C74.8525 40.5163 68.5625 41.2838 65.7463 41.62C64.8975 41.7163 64.7538 40.98 65.5225 40.4363C70.5313 36.915 78.7575 37.9238 79.7025 39.1075C80.6463 40.2913 79.4463 48.5338 74.7575 52.4713C74.0375 53.08 73.3488 52.7588 73.6688 51.9588C74.7238 49.3025 77.0925 43.3975 75.9725 41.9563Z" fill="#F7FAFD"/>
    </g>
    <defs>
        <clipPath id="clip0_17_91">
            <rect width="80" height="64" fill="white"/>
        </clipPath>
    </defs>
</svg>
