<svg width="80" height="72" viewBox="0 0 80 72" fill="none" xmlns="http://www.w3.org/2000/svg">
    <path d="M46.3195 27.9721C46.3195 24.9027 44.1528 23.2082 40.3472 23.2082H33.3472V33.0971H39.25C43.8056 33.0832 46.3195 31.2499 46.3195 27.9721ZM71.8056 26.1943C70.4861 21.9027 70.2917 16.6388 70.4445 12.5693C70.5972 8.33323 67.2917 4.44434 62.8472 4.44434H17.1806C12.7222 4.44434 9.43056 8.34711 9.58334 12.5693C9.72223 16.6388 9.54167 21.9027 8.22223 26.1943C6.8889 30.4999 4.65278 33.2221 0.972229 33.5693V37.5277C4.6389 37.8749 6.8889 40.5971 8.22223 44.9027C9.54167 49.1943 9.73612 54.4582 9.58334 58.5277C9.43056 62.7638 12.7361 66.6527 17.1806 66.6527H62.8333C67.2917 66.6527 70.5833 62.7499 70.4306 58.5277C70.2917 54.4582 70.4722 49.1943 71.7917 44.9027C73.125 40.5971 75.3611 37.8749 79.0278 37.5277V33.5693C75.375 33.2221 73.125 30.4999 71.8056 26.1943ZM41.6945 52.0971H28.0972V18.9999H41.625C47.6389 18.9999 51.5833 22.2499 51.5833 27.2499C51.5833 30.7638 48.9306 33.9027 45.5417 34.4443V34.6249C50.1528 35.1249 53.25 38.3193 53.25 42.7221C53.25 48.5693 48.9028 52.0971 41.6945 52.0971ZM40.3056 36.9999H33.3472V47.8888H40.6111C45.3611 47.8888 47.875 45.986 47.875 42.4027C47.875 38.8332 45.2917 36.9999 40.3056 36.9999Z" fill="#F7FAFD"/>
</svg>
