<svg width="60" height="69" viewBox="0 0 60 69" fill="none" xmlns="http://www.w3.org/2000/svg">
    <g clip-path="url(#clip0_17_97)">
        <path d="M60 10.7143V17.1429C60 23.0625 46.567 27.8571 30 27.8571C13.433 27.8571 0 23.0625 0 17.1429V10.7143C0 4.79464 13.433 0 30 0C46.567 0 60 4.79464 60 10.7143ZM52.6607 28.7545C55.4464 27.7634 58.0045 26.4911 60 24.9241V38.5714C60 44.4911 46.567 49.2857 30 49.2857C13.433 49.2857 0 44.4911 0 38.5714V24.9241C1.99554 26.5045 4.55357 27.7634 7.33929 28.7545C13.3527 30.8973 21.3616 32.1429 30 32.1429C38.6384 32.1429 46.6473 30.8973 52.6607 28.7545ZM0 46.3527C1.99554 47.933 4.55357 49.192 7.33929 50.183C13.3527 52.3259 21.3616 53.5714 30 53.5714C38.6384 53.5714 46.6473 52.3259 52.6607 50.183C55.4464 49.192 58.0045 47.9196 60 46.3527V57.8571C60 63.7768 46.567 68.5714 30 68.5714C13.433 68.5714 0 63.7768 0 57.8571V46.3527Z" fill="#F7FAFD"/>
    </g>
    <defs>
        <clipPath id="clip0_17_97">
            <rect width="60" height="68.5714" fill="white"/>
        </clipPath>
    </defs>
</svg>
