<svg width="80" height="64" viewBox="0 0 80 64" fill="none" xmlns="http://www.w3.org/2000/svg">
    <g clip-path="url(#clip0_17_151)">
        <path d="M43.7375 29.5375H35.475V22.1125H43.7375V29.5375ZM43.7375 4H35.475V11.5875H43.7375V4ZM53.5125 22.1H45.25V29.525H53.5125V22.1ZM33.975 13.0875H25.7125V20.6H33.975V13.0875ZM43.7375 13.0875H35.475V20.6H43.7375V13.0875ZM78.3375 25.5875C76.5375 24.375 72.3875 23.9375 69.2 24.5375C68.7875 21.5375 67.1125 18.925 64.0625 16.575L62.3125 15.4125L61.15 17.1625C58.85 20.6375 58.225 26.3625 60.6875 30.1375C59.6 30.725 57.4625 31.525 54.6375 31.475H0.300016C-0.787483 37.825 1.02502 46.075 5.80002 51.7375C10.4375 57.225 17.3875 60.0125 26.475 60.0125C46.15 60.0125 60.7125 50.95 67.525 34.4875C70.2 34.5375 75.975 34.5 78.9375 28.8375C79.125 28.525 79.7625 27.1875 80 26.7L78.3375 25.5875ZM14.45 22.1H6.20002V29.525H14.4625V22.1H14.45ZM24.2125 22.1H15.95V29.525H24.2125V22.1ZM33.975 22.1H25.7125V29.525H33.975V22.1ZM24.2125 13.0875H15.95V20.6H24.2125V13.0875Z" fill="#F7FAFD"/>
    </g>
    <defs>
        <clipPath id="clip0_17_151">
            <rect width="80" height="64" fill="white"/>
        </clipPath>
    </defs>
</svg>
