<svg width="55" height="74" viewBox="0 0 55 74" fill="none" xmlns="http://www.w3.org/2000/svg">
    <g clip-path="url(#clip0_17_153)">
        <path d="M2.00519 13.7203C2.00519 6.14277 8.14797 0 15.7255 0H39.2678C46.8454 0 52.9882 6.14277 52.9882 13.7203C52.9882 18.5184 50.5252 22.7414 46.7945 25.1936C50.5252 27.646 52.9882 31.8688 52.9882 36.667C52.9882 44.2445 46.8454 50.3873 39.2678 50.3873H38.9699C35.4175 50.3873 32.1804 49.0372 29.7438 46.8222V59.464C29.7438 67.1425 23.4404 73.3333 15.7994 73.3333C8.24083 73.3333 2.00519 67.2093 2.00519 59.613C2.00519 54.8151 4.46794 50.5924 8.1983 48.14C4.46794 45.6877 2.00519 41.4648 2.00519 36.667C2.00519 31.8688 4.46816 27.646 8.19878 25.1936C4.46816 22.7414 2.00519 18.5184 2.00519 13.7203ZM25.2496 27.4408H15.7255C10.63 27.4408 6.4994 31.5716 6.4994 36.667C6.4994 41.7427 10.5982 45.8611 15.6665 45.8929C15.6862 45.8928 15.7058 45.8928 15.7255 45.8928H25.2496V27.4408ZM29.7438 36.667C29.7438 41.7623 33.8744 45.8931 38.9699 45.8931H39.2678C44.3634 45.8931 48.4939 41.7623 48.4939 36.667C48.4939 31.5716 44.3634 27.4408 39.2678 27.4408H38.9699C33.8744 27.4408 29.7438 31.5716 29.7438 36.667ZM15.7255 50.3873C15.7058 50.3873 15.6862 50.3872 15.6665 50.3872C10.5982 50.4188 6.4994 54.5372 6.4994 59.613C6.4994 64.6897 10.6852 68.8391 15.7994 68.8391C20.9961 68.8391 25.2496 64.623 25.2496 59.464V50.3873H15.7255ZM15.7255 4.49422C10.63 4.49422 6.4994 8.62487 6.4994 13.7203C6.4994 18.8157 10.63 22.9463 15.7255 22.9463H25.2496V4.49422H15.7255ZM29.7438 22.9463H39.2678C44.3634 22.9463 48.4939 18.8157 48.4939 13.7203C48.4939 8.62487 44.3634 4.49422 39.2678 4.49422H29.7438V22.9463Z" fill="#F7FAFD"/>
    </g>
    <defs>
        <clipPath id="clip0_17_153">
            <rect width="55" height="73.3333" fill="white"/>
        </clipPath>
    </defs>
</svg>
