<svg width="70" height="80" viewBox="0 0 70 80" fill="none" xmlns="http://www.w3.org/2000/svg">
    <g clip-path="url(#clip0_17_155)">
        <path d="M68.6797 36.8828L38.125 6.32028C37.2792 5.47519 36.1324 5.00049 34.9367 5.00049C33.741 5.00049 32.5943 5.47519 31.7484 6.32028L25.3953 12.6687L33.4453 20.7187C37.6734 19.2906 41.6766 23.339 40.225 27.5437L47.9844 35.3031C53.3328 33.4593 57.5437 40.1468 53.5266 44.1609C49.3875 48.3 42.5562 43.7125 44.7766 38.3265L37.5344 31.0937V50.1328C41.4875 52.0922 41.0125 56.6718 38.9531 58.7265C37.947 59.7321 36.5827 60.297 35.1602 60.297C33.7376 60.297 32.3733 59.7321 31.3672 58.7265C28.6219 55.9765 29.6375 51.3968 33.125 49.9765V30.7578C29.875 29.4281 29.2812 25.9547 30.2125 23.7265L22.2766 15.7812L1.32031 36.7406C0.474844 37.5862 -0.00012207 38.7331 -0.00012207 39.9289C-0.00012207 41.1247 0.474844 42.2715 1.32031 43.1172L31.8844 73.6796C32.73 74.5246 33.8765 74.9993 35.0719 74.9993C36.2673 74.9993 37.4138 74.5246 38.2594 73.6796L68.6797 43.2593C69.5252 42.4137 70.0001 41.2669 70.0001 40.0711C70.0001 38.8753 69.5252 37.7284 68.6797 36.8828Z" fill="#F7FAFD"/>
    </g>
    <defs>
        <clipPath id="clip0_17_155">
            <rect width="70" height="80" fill="white"/>
        </clipPath>
    </defs>
</svg>
