<svg width="70" height="80" viewBox="0 0 70 80" fill="none" xmlns="http://www.w3.org/2000/svg">
    <path d="M0 5V75H70V5H0ZM38.0938 59.5938C38.0938 66.4062 34.0938 69.5156 28.2656 69.5156C23 69.5156 19.9531 66.7969 18.3906 63.5L23.75 60.2656C24.7812 62.0938 25.7188 63.6406 27.9844 63.6406C30.1406 63.6406 31.5156 62.7969 31.5156 59.5V37.1406H38.0938V59.5938ZM53.6562 69.5156C47.5469 69.5156 43.5938 66.6094 41.6719 62.7969L47.0312 59.7031C48.4375 62 50.2812 63.7031 53.5156 63.7031C56.2344 63.7031 57.9844 62.3438 57.9844 60.4531C57.9844 58.2031 56.2031 57.4062 53.1875 56.0781L51.5469 55.375C46.7969 53.3594 43.6562 50.8125 43.6562 45.4531C43.6562 40.5156 47.4219 36.7656 53.2812 36.7656C57.4688 36.7656 60.4687 38.2188 62.625 42.0312L57.5 45.3125C56.375 43.2969 55.1562 42.5 53.2656 42.5C51.3438 42.5 50.125 43.7188 50.125 45.3125C50.125 47.2812 51.3438 48.0781 54.1719 49.3125L55.8125 50.0156C61.4062 52.4062 64.5469 54.8594 64.5469 60.3594C64.5469 66.2656 59.8906 69.5156 53.6562 69.5156Z" fill="#F7FAFD"/>
</svg>
