<svg width="60" height="69" viewBox="0 0 60 69" fill="none" xmlns="http://www.w3.org/2000/svg">
    <g clip-path="url(#clip0_17_161)">
        <path d="M29.5714 16.5134C29.7054 16.5804 29.8125 16.7411 29.9732 16.7411C30.1205 16.7411 30.3482 16.6875 30.3616 16.5402C30.3884 16.3527 30.1071 16.2322 29.933 16.1518C29.7054 16.0581 29.4107 16.0179 29.1964 16.1384C29.1429 16.1652 29.0893 16.2322 29.1161 16.2858C29.1562 16.4599 29.4241 16.4331 29.5714 16.5134ZM26.6384 16.7411C26.7991 16.7411 26.9062 16.5804 27.0402 16.5134C27.1875 16.4331 27.4554 16.4599 27.5089 16.2991C27.5357 16.2456 27.4821 16.1786 27.4286 16.1518C27.2143 16.0313 26.9196 16.0715 26.692 16.1652C26.5179 16.2456 26.2366 16.3661 26.2634 16.5536C26.2768 16.6875 26.5045 16.7545 26.6384 16.7411ZM56.25 54.0804C55.7679 53.5447 55.5402 52.5268 55.2857 51.442C55.0446 50.3572 54.7634 49.192 53.8795 48.442C53.7053 48.2947 53.5312 48.1607 53.3437 48.0536C53.1696 47.9465 52.9821 47.8527 52.7946 47.7857C54.0268 44.1295 53.5446 40.4866 52.2991 37.192C50.7723 33.1607 48.1071 29.6384 46.0714 27.2277C43.7812 24.3482 41.558 21.6161 41.5982 17.5849C41.6652 11.4375 42.2812 0.0134316 31.4464 3.87287e-05C17.7321 -0.026747 21.1607 13.8483 21.0134 18.1072C20.7857 21.2411 20.1562 23.7054 18 26.7724C15.4687 29.7857 11.9062 34.6474 10.2187 39.7232C9.41517 42.1206 9.04017 44.5581 9.38839 46.8616C8.51785 47.6384 7.8616 48.8304 7.16517 49.567C6.60267 50.1429 5.78571 50.3572 4.88839 50.6786C3.99107 51 3.01339 51.4822 2.41071 52.6206C2.12946 53.1429 2.03571 53.7054 2.03571 54.2813C2.03571 54.8036 2.11607 55.3393 2.19642 55.8616C2.35714 56.9465 2.53125 57.9643 2.30357 58.6474C1.60714 60.5759 1.51339 61.9152 2.00892 62.8929C2.51785 63.8706 3.53571 64.2991 4.70089 64.5402C7.01785 65.0223 10.1652 64.9018 12.6429 66.2143C15.2946 67.6072 17.9866 68.1027 20.1295 67.6072C21.683 67.259 22.9554 66.3215 23.5982 64.9018C25.2723 64.8884 27.1205 64.1786 30.067 64.0179C32.0625 63.8572 34.567 64.7277 37.4464 64.567C37.5268 64.875 37.6339 65.1831 37.7812 65.4643V65.4777C38.8929 67.7143 40.9687 68.7322 43.1786 68.5581C45.4018 68.384 47.7455 67.0848 49.6473 64.8215C51.4687 62.625 54.4687 61.7143 56.4643 60.509C57.4554 59.9063 58.2589 59.1563 58.3259 58.0581C58.3795 56.9599 57.7366 55.7411 56.25 54.0804ZM29.9598 11.692C31.2723 8.71879 34.5402 8.77236 35.8527 11.6384C36.7232 13.5402 36.3348 15.7768 35.2768 17.0491C35.0625 16.942 34.4866 16.7009 33.5893 16.3929C33.7366 16.2322 34.0045 16.0313 34.1116 15.7768C34.7545 14.1965 34.0848 12.1608 32.8929 12.1206C31.9152 12.0536 31.0312 13.567 31.3125 15.2009C30.7634 14.9331 30.0536 14.7322 29.5714 14.6116C29.4375 13.6875 29.5312 12.6563 29.9598 11.692ZM24.5089 10.1518C25.8616 10.1518 27.2946 12.0536 27.067 14.6384C26.5982 14.7724 26.1161 14.9733 25.7009 15.2545C25.8616 14.0625 25.2589 12.5625 24.4152 12.6295C23.2902 12.7233 23.1027 15.4688 24.1741 16.3929C24.308 16.5 24.4286 16.3661 23.3839 17.1295C21.2946 15.1741 21.9777 10.1518 24.5089 10.1518ZM22.6875 18.2813C23.5179 17.6652 24.5089 16.942 24.5759 16.875C25.2054 16.2858 26.3839 14.9733 28.3125 14.9733C29.2634 14.9733 30.4018 15.2813 31.7812 16.1652C32.625 16.7143 33.2946 16.7545 34.808 17.4108C35.933 17.8795 36.6429 18.7099 36.2143 19.8482C35.8661 20.7991 34.7411 21.7768 33.1741 22.2724C31.6875 22.7545 30.5223 24.4152 28.058 24.2679C27.5357 24.2411 27.1205 24.134 26.7723 23.9866C25.7009 23.5179 25.1384 22.5938 24.0937 21.9777C22.942 21.3349 22.3259 20.5849 22.125 19.9286C21.9375 19.2724 22.125 18.7233 22.6875 18.2813ZM23.1295 63.0134C22.7679 67.7143 17.25 67.6206 13.0446 65.4241C9.04017 63.3081 3.85714 64.5536 2.7991 62.4911C2.47767 61.8616 2.47767 60.7902 3.14732 58.9554V58.9286C3.46875 57.9107 3.22767 56.7857 3.06696 55.7277C2.90625 54.6831 2.82589 53.7188 3.1875 53.0491C3.65625 52.1518 4.32589 51.8304 5.16964 51.5357C6.5491 51.0402 6.75 51.0804 7.79464 50.2099C8.53125 49.4465 9.06696 48.4822 9.70982 47.7991C10.3929 47.0625 11.0491 46.7143 12.0804 46.875C13.1652 47.0357 14.1027 47.7857 15.0134 49.0179L17.6384 53.7857C18.9107 56.4509 23.4107 60.2679 23.1295 63.0134ZM22.942 59.5447C22.3929 58.6607 21.6562 57.7232 21.0134 56.9197C21.9643 56.9197 22.9152 56.625 23.25 55.7277C23.558 54.8974 23.25 53.7322 22.2589 52.3929C20.4509 49.9554 17.1295 48.0402 17.1295 48.0402C15.3214 46.9152 14.3036 45.5357 13.8348 44.0357C13.3661 42.5357 13.433 40.9152 13.7946 39.3215C14.4911 36.2545 16.2857 33.2679 17.4375 31.3929C17.7455 31.1652 17.5446 31.8215 16.2723 34.1786C15.1339 36.3349 13.0045 41.317 15.9241 45.2143C16.0045 42.442 16.6607 39.6161 17.7723 36.9777C19.3795 33.3081 22.7679 26.9465 23.0357 21.884C23.183 21.9911 23.6518 22.3125 23.8661 22.4331C24.4821 22.7947 24.9509 23.3304 25.5536 23.8125C27.2143 25.1518 29.3705 25.0447 31.2321 23.9732C32.0625 23.5045 32.7321 22.9688 33.3616 22.7679C34.6875 22.3527 35.7455 21.6161 36.3482 20.759C37.3795 24.8304 39.7902 30.7099 41.3304 33.5759C42.1473 35.1027 43.7812 38.3304 44.4911 42.2277C44.933 42.2143 45.4286 42.2813 45.9509 42.4152C47.7991 37.634 44.3839 32.4777 42.8303 31.0447C42.2009 30.4286 42.1741 30.1607 42.4821 30.1741C44.1696 31.6741 46.3928 34.6875 47.1964 38.0759C47.5714 39.6295 47.6384 41.25 47.25 42.8572C49.4464 43.7679 52.058 45.2545 51.3616 47.5179C51.067 47.5045 50.933 47.5179 50.7991 47.5179C51.2277 46.1652 50.2768 45.1607 47.7455 44.0224C45.1205 42.8706 42.9241 42.8706 42.6161 45.6965C40.9955 46.259 40.1652 47.6652 39.75 49.3527C39.375 50.8527 39.2679 52.6607 39.1607 54.6965C39.0937 55.7277 38.6786 57.1072 38.25 58.5804C33.9509 61.6474 27.9777 62.9866 22.942 59.5447ZM57.4152 58.0045C57.2946 60.2545 51.8973 60.6697 48.9509 64.2322C47.183 66.3348 45.0134 67.5 43.1116 67.6473C41.2098 67.7947 39.5625 67.0045 38.5982 65.0625C37.9687 63.5759 38.2768 61.9688 38.7455 60.2009C39.2411 58.2991 39.9777 56.3438 40.0714 54.7634C40.1786 52.7277 40.2991 50.9465 40.6339 49.5804C40.9821 48.2009 41.5179 47.2768 42.4687 46.7545C42.5089 46.7277 42.5625 46.7143 42.6027 46.6875C42.7098 48.4554 43.5804 50.25 45.1205 50.6384C46.808 51.0804 49.2321 49.634 50.2634 48.4554C51.4687 48.4152 52.3661 48.3349 53.2902 49.1384C54.6161 50.2768 54.2411 53.1965 55.5804 54.7099C57 56.2634 57.4554 57.3215 57.4152 58.0045ZM23.2098 19.9152C23.4777 20.1697 23.8393 20.5179 24.2812 20.8661C25.1652 21.5625 26.3973 22.2857 27.9375 22.2857C29.4911 22.2857 30.9509 21.4956 32.1964 20.8393C32.8527 20.4911 33.6562 19.9018 34.1786 19.4465C34.7009 18.9911 34.9687 18.6027 34.5937 18.5625C34.2187 18.5224 34.2455 18.9107 33.7902 19.2456C33.2009 19.6741 32.4911 20.2366 31.9286 20.5581C30.9375 21.1206 29.317 21.9241 27.9241 21.9241C26.5312 21.9241 25.4196 21.2813 24.5893 20.625C24.1741 20.2902 23.8259 19.9554 23.558 19.7009C23.3571 19.5134 23.3036 19.0849 22.9821 19.0447C22.7946 19.0313 22.7411 19.5402 23.2098 19.9152Z" fill="#F7FAFD"/>
    </g>
    <defs>
        <clipPath id="clip0_17_161">
            <rect width="60" height="68.5714" fill="white"/>
        </clipPath>
    </defs>
</svg>
