<svg width="80" height="64" viewBox="0 0 80 64" fill="none" xmlns="http://www.w3.org/2000/svg">
    <path d="M39.5375 56.4999C39.275 56.4999 39.0125 56.4249 38.775 56.2999L36.375 54.8749C36.0125 54.6749 36.1875 54.5999 36.3125 54.5624C36.7875 54.3999 36.8875 54.3624 37.4 54.0624C37.45 54.0374 37.525 54.0499 37.575 54.0749L39.425 55.1749C39.4875 55.2124 39.5875 55.2124 39.65 55.1749L46.875 50.9999C46.9375 50.9624 46.9875 50.8874 46.9875 50.7999V42.4624C46.9875 42.3749 46.95 42.2999 46.875 42.2624L39.65 38.0999C39.5875 38.0624 39.5 38.0624 39.425 38.0999L32.2 42.2624C32.125 42.2999 32.0875 42.3874 32.0875 42.4624V50.7999C32.0875 50.8749 32.1375 50.9499 32.2 50.9874L34.175 52.1249C35.25 52.6624 35.9125 52.0249 35.9125 51.3999V43.1624C35.9125 43.0499 36 42.9499 36.125 42.9499H37.0375C37.15 42.9499 37.25 43.0374 37.25 43.1624V51.3999C37.25 52.8374 36.475 53.6499 35.1125 53.6499C34.7 53.6499 34.3625 53.6499 33.45 53.1999L31.55 52.1124C31.0875 51.8374 30.7875 51.3374 30.7875 50.7999V42.4624C30.7875 41.9249 31.075 41.4124 31.55 41.1499L38.775 36.9749C39.2375 36.7124 39.8375 36.7124 40.2875 36.9749L47.5125 41.1499C47.975 41.4249 48.275 41.9249 48.275 42.4624V50.7999C48.275 51.3374 47.9875 51.8499 47.5125 52.1124L40.2875 56.2874C40.075 56.4249 39.8125 56.4999 39.5375 56.4999ZM45.375 48.2749C45.375 46.7124 44.325 46.2999 42.1 45.9999C39.85 45.6999 39.625 45.5499 39.625 45.0249C39.625 44.5874 39.8125 44.0124 41.475 44.0124C42.9625 44.0124 43.5125 44.3374 43.7375 45.3374C43.7625 45.4374 43.8375 45.4999 43.9375 45.4999H44.875C44.9375 45.4999 44.9875 45.4749 45.025 45.4374C45.0625 45.3874 45.0875 45.3374 45.075 45.2749C44.925 43.5499 43.7875 42.7499 41.475 42.7499C39.4125 42.7499 38.1875 43.6249 38.1875 45.0749C38.1875 46.6624 39.4125 47.0874 41.3875 47.2874C43.75 47.5249 43.9375 47.8624 43.9375 48.3249C43.9375 49.1374 43.2875 49.4749 41.7625 49.4749C39.85 49.4749 39.425 48.9999 39.2875 48.0499C39.275 47.9499 39.1875 47.8749 39.075 47.8749H38.1375C38.025 47.8749 37.925 47.9624 37.925 48.0874C37.925 49.2999 38.5875 50.7499 41.75 50.7499C44.0625 50.7499 45.375 49.8499 45.375 48.2749ZM52.1875 42.0124C52.1875 42.7749 51.5625 43.3999 50.8 43.3999C50.0375 43.3999 49.4125 42.7749 49.4125 42.0124C49.4125 41.2249 50.0625 40.6249 50.8 40.6249C51.55 40.6124 52.1875 41.2249 52.1875 42.0124ZM51.9625 42.0124C51.9625 41.3624 51.4375 40.8499 50.7875 40.8499C50.15 40.8499 49.625 41.3624 49.625 42.0124C49.625 42.6624 50.15 43.1874 50.7875 43.1874C51.4375 43.1749 51.9625 42.6499 51.9625 42.0124ZM51.4 42.7874H51.075C51.0625 42.7124 51.0125 42.3124 51.0125 42.2999C50.9875 42.2124 50.9625 42.1624 50.85 42.1624H50.575V42.7874H50.275V41.2249H50.8125C51 41.2249 51.3625 41.2249 51.3625 41.6374C51.3625 41.9249 51.175 41.9874 51.0625 42.0249C51.275 42.0374 51.2875 42.1749 51.325 42.3749C51.3375 42.4999 51.3625 42.7124 51.4 42.7874ZM51.05 41.6874C51.05 41.4749 50.9 41.4749 50.825 41.4749H50.575V41.9124H50.8125C51.0125 41.9124 51.05 41.7749 51.05 41.6874ZM17.1625 23.8749C17.1625 23.5374 16.9875 23.2374 16.7 23.0749L9.0375 18.6624C8.9125 18.5874 8.7625 18.5499 8.6125 18.5374H8.5375C8.3875 18.5374 8.25 18.5874 8.1125 18.6624L0.4625 23.0749C0.175 23.2374 0 23.5499 0 23.8749L0.0125 35.7499C0.0125 35.9124 0.1 36.0624 0.2375 36.1499C0.375 36.2374 0.55 36.2374 0.7 36.1499L5.25 33.5374C5.5375 33.3624 5.7125 33.0624 5.7125 32.7374V27.1874C5.7125 26.8624 5.8875 26.5499 6.175 26.3874L8.1125 25.2749C8.2625 25.1874 8.4125 25.1499 8.575 25.1499C8.7375 25.1499 8.9 25.1874 9.0375 25.2749L10.975 26.3874C11.2625 26.5499 11.4375 26.8624 11.4375 27.1874V32.7374C11.4375 33.0624 11.6125 33.3749 11.9 33.5374L16.45 36.1499C16.5875 36.2374 16.775 36.2374 16.9125 36.1499C17.05 36.0749 17.1375 35.9124 17.1375 35.7499L17.1625 23.8749ZM59.0625 10.9124V32.9624C59.0625 33.2874 58.8875 33.5999 58.6 33.7624L50.9375 38.1874C50.65 38.3499 50.3 38.3499 50.0125 38.1874L42.35 33.7624C42.0625 33.5999 41.8875 33.2874 41.8875 32.9624V24.1124C41.8875 23.7874 42.0625 23.4749 42.35 23.3124L50.0125 18.8874C50.3 18.7249 50.65 18.7249 50.9375 18.8874L52.85 19.9874C53.0625 20.1124 53.3375 19.9499 53.3375 19.7124V7.96239C53.3375 7.61239 53.7125 7.38739 54.025 7.56239L58.5875 10.1124C58.875 10.2624 59.0625 10.5749 59.0625 10.9124ZM53.3125 27.0249C53.3125 26.9374 53.2625 26.8624 53.2 26.8249L50.575 25.2999C50.5 25.2624 50.4125 25.2624 50.3375 25.2999L47.7125 26.8249C47.6375 26.8624 47.6 26.9374 47.6 27.0249V30.0624C47.6 30.1499 47.65 30.2249 47.7125 30.2624L50.3375 31.7749C50.4125 31.8124 50.5 31.8124 50.5625 31.7749L53.1875 30.2624C53.2625 30.2249 53.3 30.1499 53.3 30.0624V27.0249H53.3125ZM79.5375 26.9374C79.825 26.7749 80 26.4624 80 26.1374V23.9999C80 23.6749 79.825 23.3624 79.5375 23.1999L71.925 18.7749C71.6375 18.6124 71.2875 18.6124 71 18.7749L63.3375 23.1999C63.05 23.3624 62.875 23.6749 62.875 23.9999V32.8499C62.875 33.1874 63.05 33.4874 63.3375 33.6499L70.95 37.9874C71.225 38.1499 71.575 38.1499 71.8625 37.9874L76.4625 35.4249C76.775 35.2499 76.775 34.7999 76.4625 34.6249L68.75 30.1999C68.6 30.1124 68.5125 29.9624 68.5125 29.7999V27.0249C68.5125 26.8624 68.6 26.7124 68.75 26.6249L71.15 25.2374C71.2875 25.1499 71.475 25.1499 71.6125 25.2374L74.0125 26.6249C74.15 26.7124 74.25 26.8624 74.25 27.0249V29.1999C74.25 29.5499 74.6375 29.7749 74.95 29.5999L79.5375 26.9374ZM69.875 27.3749C69.825 27.4124 69.7875 27.4624 69.7875 27.5249V29.2249C69.7875 29.2874 69.825 29.3499 69.875 29.3749L71.35 30.2249C71.4 30.2624 71.475 30.2624 71.525 30.2249L73 29.3749C73.05 29.3374 73.0875 29.2874 73.0875 29.2249V27.5249C73.0875 27.4624 73.05 27.3999 73 27.3749L71.525 26.5249C71.475 26.4874 71.4 26.4874 71.35 26.5249L69.875 27.3749ZM38.1 32.8124V24.0124C38.1 23.6874 37.9 23.3749 37.6125 23.2124L29.975 18.8124C29.7125 18.6624 29.35 18.6374 29.05 18.8124L21.4125 23.2124C21.125 23.3749 20.925 23.6749 20.925 24.0124V32.8124C20.925 33.1624 21.1625 33.4624 21.425 33.6124L29.075 38.0124C29.375 38.1874 29.725 38.1749 30 38.0124L37.625 33.6124C37.85 33.4874 38.0125 33.2749 38.075 33.0249C38.0875 32.9624 38.1 32.8874 38.1 32.8124ZM28.8125 17.1999L28.7125 17.2624H28.85L28.8125 17.1999ZM38.3375 33.4749L38.2875 33.3874V33.4999L38.3375 33.4749Z" fill="#F7FAFD"/>
</svg>
