<svg width="80" height="64" viewBox="0 0 80 64" fill="none" xmlns="http://www.w3.org/2000/svg">
    <path d="M37.73 47.365C37.655 47.5 37.6925 47.44 37.73 47.365V47.365ZM68.8713 36.49C66.3572 36.4891 63.8766 37.0665 61.6213 38.1775C60.8838 36.69 60.1213 35.39 59.9963 34.415C59.8462 33.2775 59.6838 32.6025 59.8587 31.2525C60.0337 29.9025 60.8213 27.99 60.8088 27.8525C60.7962 27.715 60.6338 27.0275 59.0213 27.015C57.4088 27.0025 56.0213 27.3275 55.86 27.7525C55.5752 28.5291 55.3537 29.3276 55.1975 30.14C54.91 31.6025 51.9737 36.8275 50.3112 39.5525C49.7612 38.49 49.2987 37.5525 49.1987 36.8025C49.0487 35.665 48.8862 34.99 49.0612 33.64C49.2362 32.29 50.0238 30.3775 50.0112 30.24C49.9987 30.1025 49.8363 29.415 48.225 29.4025C46.6137 29.39 45.225 29.715 45.0625 30.14C44.9 30.565 44.725 31.565 44.4 32.5275C44.075 33.49 40.1637 42.19 39.14 44.4525C38.615 45.6025 38.165 46.5275 37.84 47.1525C37.79 47.2525 37.7525 47.315 37.7275 47.365C37.765 47.3025 37.79 47.24 37.79 47.265C37.515 47.8025 37.3525 48.1025 37.3525 48.1025V48.115C37.14 48.515 36.9025 48.8775 36.79 48.8775C36.715 48.8775 36.5525 47.8275 36.8275 46.39C37.415 43.365 38.8025 38.665 38.79 38.5025C38.7775 38.415 39.0525 37.6025 37.8775 37.165C36.74 36.7525 36.3275 37.44 36.2275 37.44C36.1275 37.44 36.0525 37.69 36.0525 37.69C36.0525 37.69 37.315 32.39 33.6287 32.39C31.3288 32.39 28.1287 34.915 26.5562 37.2025C25.5688 37.74 23.4312 38.9025 21.1812 40.14C20.3188 40.615 19.4312 41.1025 18.5938 41.565C18.5312 41.5025 18.4813 41.44 18.4188 41.3775C13.945 36.6025 5.685 33.2275 6.035 26.815C6.16 24.4775 6.9725 18.34 21.9188 10.89C34.1688 4.78996 43.9625 6.46496 45.6488 10.19C48.0737 15.5025 40.4125 25.39 27.6912 26.815C22.8425 27.3525 20.2938 25.4775 19.6562 24.7775C18.9937 24.04 18.8937 24.0025 18.6437 24.14C18.2312 24.365 18.4937 25.015 18.6437 25.4025C19.0187 26.39 20.5812 28.14 23.2425 29.015C25.58 29.7775 31.265 30.2025 38.1387 27.54C45.8612 24.565 51.8725 16.2775 50.11 9.33996C48.315 2.28996 36.625 -0.022542 25.5713 3.90246C18.985 6.23996 11.8625 9.91496 6.73875 14.7025C0.652501 20.4025 -0.321249 25.365 0.0787509 27.44C1.5025 34.8025 11.65 39.6025 15.7113 43.1525C15.5113 43.265 15.3238 43.365 15.1488 43.465C13.1125 44.4775 5.37625 48.5275 3.44 52.8025C1.2525 57.6525 3.8025 61.1275 5.47625 61.6025C10.7 63.0525 16.0487 60.44 18.9225 56.1525C21.7963 51.865 21.4475 46.265 20.1225 43.715C20.11 43.6775 20.085 43.6525 20.0725 43.615C20.5975 43.3025 21.135 42.99 21.6725 42.6775C22.7087 42.065 23.7212 41.5025 24.6087 41.015C24.1087 42.365 23.7463 43.99 23.5588 46.34C23.3337 49.09 24.4713 52.6525 25.9463 54.0525C26.5963 54.665 27.3825 54.6775 27.87 54.6775C29.595 54.6775 30.37 53.2525 31.2313 51.5525C32.2938 49.4775 33.2313 47.065 33.2313 47.065C33.2313 47.065 32.0562 53.59 35.2687 53.59C36.4425 53.59 37.6175 52.0775 38.1437 51.3025V51.315C38.1437 51.315 38.1688 51.265 38.2313 51.165C38.3563 50.9775 38.4188 50.865 38.4188 50.865V50.8275C38.8937 50.015 39.9313 48.1525 41.4925 45.0775C43.5175 41.1025 45.4538 36.14 45.4538 36.14C45.6409 37.2308 45.8997 38.3082 46.2287 39.365C46.5787 40.5525 47.3162 41.8525 47.9038 43.115C47.4288 43.765 47.1413 44.14 47.1413 44.14C47.1422 44.1496 47.1466 44.1585 47.1538 44.165C46.7788 44.665 46.3537 45.2025 45.9162 45.7275C44.3175 47.6275 42.4162 49.8025 42.1662 50.4275C41.8662 51.165 41.9412 51.715 42.5163 52.14C42.9412 52.465 43.6912 52.515 44.4775 52.4525C45.915 52.3525 46.9275 52.0025 47.415 51.7775C48.3137 51.4552 49.1631 51.0092 49.9388 50.4525C51.5013 49.3025 52.4513 47.6525 52.3638 45.4775C52.3138 44.2775 51.9262 43.0775 51.4512 41.9525C51.5887 41.7525 51.7388 41.54 51.8763 41.3275C54.35 37.715 56.2625 33.75 56.2625 33.75C56.4496 34.8408 56.7085 35.9182 57.0375 36.975C57.3375 37.9875 57.9238 39.1 58.4613 40.1875C56.1375 42.075 54.7 44.2625 54.2 45.7C53.275 48.3625 54 49.5625 55.3625 49.8375C55.975 49.9625 56.85 49.675 57.5 49.4C58.4653 49.0784 59.3755 48.6105 60.1987 48.0125C61.7612 46.8625 63.2725 45.25 63.1725 43.0625C63.135 42.075 62.86 41.0875 62.4975 40.1375C64.46 39.3125 67.0088 38.8625 70.2588 39.2375C77.2188 40.05 78.5812 44.4 78.3188 46.2125C78.0563 48.025 76.5938 49.0375 76.1063 49.3375C75.6187 49.6375 75.4688 49.75 75.5063 49.975C75.5688 50.3 75.7938 50.2875 76.2063 50.2125C76.7813 50.1125 79.855 48.7375 79.9925 45.375C80.1925 41.125 76.1063 36.45 68.8675 36.4875L68.8713 36.49ZM15.2238 54.5775C12.925 57.09 9.7 58.04 8.31375 57.24C6.82625 56.375 7.41375 52.6775 10.25 50C11.975 48.375 14.1988 46.875 15.6738 45.95C16.0113 45.75 16.4987 45.45 17.0987 45.0875C17.1987 45.025 17.2488 45 17.2488 45C17.3612 44.925 17.4862 44.8625 17.6112 44.7875C18.6475 48.5875 17.6488 51.9375 15.2238 54.575V54.5775ZM32.0187 43.1525C31.2188 45.115 29.5325 50.115 28.5075 49.8525C27.6325 49.6275 27.095 45.815 28.3325 42.065C28.9575 40.1775 30.2825 37.9275 31.07 37.0525C32.3312 35.64 33.7188 35.19 34.0438 35.7525C34.4813 36.49 32.5187 41.9275 32.0187 43.1525ZM45.8937 49.7775C45.5562 49.9525 45.2438 50.065 45.0938 49.9775C44.9813 49.915 45.2313 49.6775 45.2313 49.6775C45.2313 49.6775 46.9688 47.815 47.6562 46.965C48.0563 46.465 48.5188 45.8775 49.0175 45.2275C49.0175 45.29 49.03 45.3525 49.03 45.4275C49.0137 47.665 46.865 49.1775 45.89 49.7775H45.8937ZM56.5913 47.34C56.3413 47.165 56.3787 46.5775 57.2163 44.7525C57.5413 44.04 58.29 42.84 59.5913 41.69C59.7385 42.1253 59.8186 42.5805 59.8288 43.04C59.8162 45.8525 57.8037 46.9025 56.5925 47.34H56.5913Z" fill="#F7FAFD"/>
</svg>
