<svg width="80" height="80" viewBox="0 0 80 80" fill="none" xmlns="http://www.w3.org/2000/svg">
    <path d="M40 1.25C18.5938 1.25 1.25 18.5938 1.25 40C1.25 61.4062 18.5938 78.75 40 78.75C61.4062 78.75 78.75 61.4062 78.75 40C78.75 18.5938 61.4062 1.25 40 1.25ZM60.8969 23.6781C59.1047 23.7422 57.8656 22.6703 57.8078 21.0422C57.7656 19.6078 58.8516 18.9422 58.8281 18.0969C58.7922 17.0734 57.2406 17.0312 56.8172 17.0547C50.6016 17.2563 49.225 25.9609 47.6156 34.8438C50.9641 35.3359 53.3422 34.7313 54.6688 33.8719C56.5438 32.6609 54.1469 31.4156 54.4469 30.0344C55.0719 27.1969 59.5328 27.0656 59.4469 30.8625C59.3906 33.6531 55.3969 37.3953 47.3219 36.4406C45.6406 45.7406 44.4547 54.4094 38.2281 61.7094C33.6969 67.0938 29.1031 67.9313 27.0438 68C23.1922 68.1328 20.6375 66.0766 20.5469 63.3375C20.4594 60.6812 22.8047 59.2344 24.3453 59.1828C27.7656 59.0656 29.0516 63.1937 26.6703 64.4953C24.7812 66.0125 26.6875 66.4656 26.9906 66.4563C28.6188 66.4 29.7 65.5953 30.4562 65.05C34.2062 61.925 35.65 56.4781 37.5422 46.5578C38.8219 38.7984 40.1984 34.3703 40.3906 33.7453C37.7453 31.7531 36.1594 29.2844 32.6016 28.3203C30.1625 27.6594 28.6766 28.2219 27.6312 29.5438C26.3937 31.1063 26.8047 33.1375 28.0016 34.3406L29.975 36.5281C32.3984 39.3297 33.725 41.5078 33.225 44.4375C32.4344 49.1141 26.8625 52.7031 20.275 50.6781C14.65 48.9422 13.6031 44.9656 14.2781 42.7687C15.4516 38.9953 20.8969 40.9375 19.6875 44.8938C19.2516 46.2375 18.9188 46.25 18.7062 46.9359C17.9937 49.2438 25.2453 51.3734 26.675 46.7188C27.3734 44.45 25.8469 43.3266 23.1984 40.4922C18.75 35.5312 20.6984 30.2594 23.6594 28.0437C31.9109 21.8953 39.3656 30.7812 40.9375 32.0766C46.7453 15.0453 56.6453 15.5984 56.9422 15.5875C60.8734 15.4609 63.8469 17.2422 63.9469 20.0641C63.9859 21.2656 63.2953 23.5937 60.8969 23.6781Z" fill="#F7FAFD"/>
</svg>
